<?xml version="1.0" encoding="utf-8"?>
<!-- Generator: Adobe Illustrator 15.1.0, SVG Export Plug-In . SVG Version: 6.00 Build 0)  -->
<!DOCTYPE svg PUBLIC "-//W3C//DTD SVG 1.1//EN" "http://www.w3.org/Graphics/SVG/1.1/DTD/svg11.dtd">
<svg version="1.1" id="Layer_2" xmlns="http://www.w3.org/2000/svg" xmlns:xlink="http://www.w3.org/1999/xlink" x="0px" y="0px"
	 width="315.487px" height="318.385px" viewBox="0 0 315.487 318.385" enable-background="new 0 0 315.487 318.385"
	 xml:space="preserve">
<g>
	<defs>
		<circle id="SVGID_1_" cx="157.744" cy="159.192" r="159.192"/>
	</defs>
	<clipPath id="SVGID_2_">
		<use xlink:href="#SVGID_1_"  overflow="visible"/>
	</clipPath>
	<g clip-path="url(#SVGID_2_)">
		
			<ellipse fill="none" stroke="#F3E106" stroke-width="3" stroke-miterlimit="10" cx="155.99" cy="159.056" rx="155.563" ry="157.29"/>
		<ellipse fill="#3467B1" cx="157.079" cy="159.403" rx="156.651" ry="158.391"/>
		<g>
			<defs>
				<rect id="SVGID_3_" x="156.95" y="-37.493" width="210.402" height="400.581"/>
			</defs>
			<clipPath id="SVGID_4_">
				<use xlink:href="#SVGID_3_"  overflow="visible"/>
			</clipPath>
			<ellipse clip-path="url(#SVGID_4_)" fill="#0096CE" cx="158.07" cy="158.272" rx="156.651" ry="158.391"/>
		</g>
		<g>
			<defs>
				<rect id="SVGID_5_" x="156.956" y="-75.397" width="202.567" height="438.814"/>
			</defs>
			<clipPath id="SVGID_6_">
				<use xlink:href="#SVGID_5_"  overflow="visible"/>
			</clipPath>
			<g clip-path="url(#SVGID_6_)">
				<path fill="#FFFFFF" d="M63.761,148.291c0,0,31.459-34.189,73.215-3.857l-0.002,13.039
					C136.974,157.473,92.759,192.422,63.761,148.291z"/>
				<path fill="#FFFFFF" d="M247.852,147.158c0,0-31.459-34.188-73.213-3.855l0.002,13.039
					C174.641,156.341,218.854,191.29,247.852,147.158z"/>
				<path fill="none" stroke="#0D1910" stroke-width="4" stroke-miterlimit="10" d="M248.055,147.284
					c-19.461-21.537-52.207-23.262-73.214-3.856"/>
				
					<ellipse fill="#0D1910" stroke="#0D1910" stroke-width="4" stroke-miterlimit="10" cx="208.091" cy="150.679" rx="8.177" ry="8.269"/>
				<path fill="none" stroke="#0D1910" stroke-width="4" stroke-miterlimit="10" d="M63.964,148.417
					c19.461-21.538,52.207-23.263,73.215-3.857"/>
				<path fill="none" stroke="#0D1910" stroke-width="4" stroke-miterlimit="10" d="M63.962,153.741
					c19.46,21.537,52.205,23.263,73.215,3.858"/>
				
					<ellipse fill="#0D1910" stroke="#0D1910" stroke-width="4" stroke-miterlimit="10" cx="102.81" cy="151.811" rx="8.178" ry="8.269"/>
				<path fill="#3467B1" d="M257.679,129.931c-43.646-44.51-104.082-5.277-104.082-5.277c-63.36-35.079-95.128,6.409-95.128,6.409
					l5.493,8.677c0,0,47.107-43.756,80.682,0c0,0,16.198,32.441-24.356,47.151c0,0,33.458,33.948,71.436,0
					c0,0-33.648-15.796-25.813-48.283c0,0,31.116-42.625,82.148,0"/>
				<g>
					<path fill="#264C87" d="M169.026,201.979c-10.072,12.447-23.263,0-23.263,0c-29.098,15.086,6.686-32.507,6.686-32.507h9.893
						C162.341,169.472,198.124,217.065,169.026,201.979"/>
				</g>
				<path fill="#F3E106" d="M152.449,103.152H77.496c0,0-77.223,47.527,10.072,78.079l23.42,7.261c0,0,14.214,17.634-16.355,7.449
					l-43.996-7.449c0,0-55.958-71.761,36.932-97.787h64.911"/>
				<path fill="#264C87" d="M163.192,103.152h74.953c0,0,77.222,47.527-10.073,78.079l-23.419,7.261c0,0-14.215,17.634,16.354,7.449
					l43.997-7.449c0,0,55.958-71.761-36.933-97.787h-64.911"/>
				<polygon fill="#264C87" points="146.883,103.152 174.639,103.152 174.844,90.706 139.048,90.706 				"/>
				<path fill="none" stroke="#C42C27" stroke-width="4" stroke-miterlimit="10" d="M26.054,83.748c0,0-37.661,79.695-6.538,127.63"
					/>
				<path fill="none" stroke="#C42C27" stroke-width="4" stroke-miterlimit="10" d="M37.285,83.748
					c0,0-39.173,76.738-11.231,118.231"/>
				<path fill="none" stroke="#C42C27" stroke-width="4" stroke-miterlimit="10" d="M47.343,83.748
					c0,0-37.959,88.053-10.059,118.231"/>
				<path fill="none" stroke="#3467B1" stroke-width="4" stroke-miterlimit="10" d="M288.905,83.748c0,0,37.657,79.695,6.537,127.63
					"/>
				<path fill="none" stroke="#3467B1" stroke-width="4" stroke-miterlimit="10" d="M277.673,83.748
					c0,0,39.172,76.738,11.231,118.231"/>
				<path fill="none" stroke="#3467B1" stroke-width="4" stroke-miterlimit="10" d="M267.612,83.748
					c0,0,37.962,88.053,10.062,118.231"/>
				<ellipse fill="#06AD79" cx="32.945" cy="218.346" rx="17.769" ry="17.966"/>
				<ellipse fill="#F3E106" cx="32.946" cy="218.346" rx="6.892" ry="6.968"/>
				<path fill="#F3E106" d="M32.945,218.346c0,0-5.655,32.604,4.339,40.747l13.43-6.571L32.945,218.346z"/>
				<ellipse fill="#264C87" cx="278.807" cy="218.346" rx="17.77" ry="17.966"/>
				<ellipse fill="#3467B1" cx="278.808" cy="218.346" rx="6.892" ry="6.968"/>
				<path fill="#3467B1" d="M280.003,218.346c0,0,5.654,32.604-4.342,40.747l-13.429-6.571L280.003,218.346z"/>
				<path fill="none" stroke="#C42C27" stroke-width="4" stroke-miterlimit="10" d="M74.138,83.748c0,0-25.584,8.096-36.854,27.896"
					/>
				<path fill="none" stroke="#3467B1" stroke-width="4" stroke-miterlimit="10" d="M240.373,82.981c0,0,25.585,8.096,36.853,27.896
					"/>
				<path fill="#264C87" d="M20.634,83.748h274.887c0,0-34.561-81.078-143.079-83.455C152.442,0.292,65.615,0.974,20.634,83.748z"/>
				<ellipse fill="#06AD79" cx="107.285" cy="47.678" rx="16.359" ry="25.417"/>
				<ellipse fill="#3467B1" cx="206.625" cy="47.678" rx="16.36" ry="25.417"/>
				<ellipse fill="#3467B1" cx="107.285" cy="47.677" rx="8.18" ry="8.27"/>
				<ellipse fill="#0096CE" cx="206.625" cy="47.677" rx="8.181" ry="8.27"/>
				<path fill="#3467B1" d="M116.531,9.707c0,0,11.232,54.589,40.718,61.723c0,0,33.543-13.828,37.832-62.974
					C195.081,8.456,155.844-0.944,116.531,9.707z"/>
				<path fill="#0096CE" d="M124.5,4.137c0,0,8.953,43.513,32.455,49.199c0,0,26.736-11.022,30.155-50.195
					C187.111,3.141,155.835-4.352,124.5,4.137z"/>
				<path fill="none" stroke="#264C87" stroke-width="4" stroke-miterlimit="10" d="M142.407,26.711c0,0,11.188,10.566,26.859,0"/>
				<path fill="none" stroke="#264C87" stroke-width="4" stroke-miterlimit="10" d="M142.407,17.565c0,0,11.188,10.566,26.859,0"/>
				<ellipse fill="#C54229" cx="76.377" cy="207.511" rx="14.721" ry="8.902"/>
				<ellipse fill="#3467B1" cx="233.658" cy="207.511" rx="14.721" ry="8.902"/>
				<path fill="none" stroke="#0D1910" stroke-width="4" stroke-miterlimit="10" d="M246.939,152.608
					c-19.459,21.538-52.205,23.264-73.214,3.859"/>
				<path fill="#3467B1" d="M156.924,224.184h60.463c0,0,16.79-2.661,17.909,13.404v20.373c0,0,0.365,14.93-17.909,13.798h-60.463"
					/>
				<path fill="#FFFFFF" stroke="#000000" stroke-width="2" stroke-miterlimit="10" d="M156.58,230.267H99.476
					c0,0-9.439,0-9.385,7.355v4.149h135.562v-4.149c0.054-7.355-9.385-7.355-9.385-7.355h-57.104"/>
				<path fill="#FFFFFF" stroke="#000000" stroke-width="2" stroke-miterlimit="10" d="M159.369,265.159h57.105
					c0,0,9.438,0,9.384-7.355v-4.151H90.296v4.151c-0.055,7.355,9.385,7.355,9.385,7.355h57.104"/>
				
					<line fill="#FFFFFF" stroke="#000000" stroke-width="2" stroke-miterlimit="10" x1="140.706" y1="265.159" x2="170.905" y2="265.159"/>
				
					<line fill="none" stroke="#000000" stroke-width="2" stroke-miterlimit="10" x1="149.495" y1="230.267" x2="165.537" y2="230.267"/>
				
					<line fill="none" stroke="#000000" stroke-width="2" stroke-miterlimit="10" x1="156.924" y1="230.267" x2="156.924" y2="241.771"/>
				
					<line fill="none" stroke="#000000" stroke-width="2" stroke-miterlimit="10" x1="168.117" y1="230.267" x2="168.117" y2="241.771"/>
				
					<line fill="none" stroke="#000000" stroke-width="2" stroke-miterlimit="10" x1="179.308" y1="230.267" x2="179.308" y2="241.771"/>
				
					<line fill="none" stroke="#000000" stroke-width="2" stroke-miterlimit="10" x1="190.499" y1="230.267" x2="190.499" y2="241.771"/>
				
					<line fill="none" stroke="#000000" stroke-width="2" stroke-miterlimit="10" x1="201.691" y1="230.267" x2="201.691" y2="241.771"/>
				
					<line fill="none" stroke="#000000" stroke-width="2" stroke-miterlimit="10" x1="212.882" y1="230.267" x2="212.882" y2="241.771"/>
				
					<line fill="none" stroke="#000000" stroke-width="2" stroke-miterlimit="10" x1="145.733" y1="230.267" x2="145.733" y2="241.771"/>
				
					<line fill="none" stroke="#000000" stroke-width="2" stroke-miterlimit="10" x1="134.542" y1="230.267" x2="134.542" y2="241.771"/>
				
					<line fill="none" stroke="#000000" stroke-width="2" stroke-miterlimit="10" x1="123.351" y1="230.267" x2="123.351" y2="241.771"/>
				
					<line fill="none" stroke="#000000" stroke-width="2" stroke-miterlimit="10" x1="112.158" y1="230.267" x2="112.158" y2="241.771"/>
				
					<line fill="none" stroke="#000000" stroke-width="2" stroke-miterlimit="10" x1="100.967" y1="230.267" x2="100.967" y2="241.771"/>
				
					<line fill="none" stroke="#000000" stroke-width="2" stroke-miterlimit="10" x1="156.924" y1="253.653" x2="156.924" y2="265.157"/>
				
					<line fill="none" stroke="#000000" stroke-width="2" stroke-miterlimit="10" x1="168.117" y1="253.653" x2="168.117" y2="265.157"/>
				
					<line fill="none" stroke="#000000" stroke-width="2" stroke-miterlimit="10" x1="179.308" y1="253.653" x2="179.308" y2="265.157"/>
				
					<line fill="none" stroke="#000000" stroke-width="2" stroke-miterlimit="10" x1="190.499" y1="253.653" x2="190.499" y2="265.157"/>
				
					<line fill="none" stroke="#000000" stroke-width="2" stroke-miterlimit="10" x1="201.691" y1="253.653" x2="201.691" y2="265.157"/>
				
					<line fill="none" stroke="#000000" stroke-width="2" stroke-miterlimit="10" x1="212.882" y1="253.653" x2="212.882" y2="265.157"/>
				
					<line fill="none" stroke="#000000" stroke-width="2" stroke-miterlimit="10" x1="145.733" y1="253.653" x2="145.733" y2="265.157"/>
				
					<line fill="none" stroke="#000000" stroke-width="2" stroke-miterlimit="10" x1="134.542" y1="253.653" x2="134.542" y2="265.157"/>
				
					<line fill="none" stroke="#000000" stroke-width="2" stroke-miterlimit="10" x1="123.351" y1="253.653" x2="123.351" y2="265.157"/>
				
					<line fill="none" stroke="#000000" stroke-width="2" stroke-miterlimit="10" x1="112.158" y1="253.653" x2="112.158" y2="265.157"/>
				
					<line fill="none" stroke="#000000" stroke-width="2" stroke-miterlimit="10" x1="100.967" y1="253.653" x2="100.967" y2="265.157"/>
				<polygon fill="#264C87" stroke="#000000" stroke-width="3" stroke-miterlimit="10" points="90.091,241.771 90.296,253.653 
					225.858,253.653 225.653,241.771 				"/>
				<path fill="none" stroke="#3467B1" stroke-width="4" stroke-miterlimit="10" d="M90.925,285.338c0,0,64.91,40.737,134.933,0"/>
				<path fill="none" stroke="#F3E106" stroke-width="4" stroke-miterlimit="10" d="M63.761,190.713
					c0,0-39.642,57.289,25.098,109.34"/>
				<path fill="none" stroke="#264C87" stroke-width="4" stroke-miterlimit="10" d="M246.766,191.845
					c0,0,39.643,57.289-25.097,109.34"/>
			</g>
		</g>
		<g>
			<defs>
				<rect id="SVGID_7_" x="-46.578" y="-74.942" width="202.567" height="438.814"/>
			</defs>
			<clipPath id="SVGID_8_">
				<use xlink:href="#SVGID_7_"  overflow="visible"/>
			</clipPath>
			<g clip-path="url(#SVGID_8_)">
				<path fill="#FFFFFF" d="M249.183,148.746c0,0-31.458-34.188-73.214-3.857l0.002,13.04
					C175.971,157.929,220.186,192.877,249.183,148.746z"/>
				<path fill="#FFFFFF" d="M65.093,147.614c0,0,31.459-34.189,73.213-3.857l-0.003,13.04
					C138.303,156.797,94.091,191.746,65.093,147.614z"/>
				<path fill="none" stroke="#0D1910" stroke-width="4" stroke-miterlimit="10" d="M64.89,147.74
					c19.461-21.538,52.207-23.263,73.214-3.857"/>
				
					<ellipse fill="#0D1910" stroke="#0D1910" stroke-width="4" stroke-miterlimit="10" cx="104.854" cy="151.134" rx="8.177" ry="8.269"/>
				<path fill="none" stroke="#0D1910" stroke-width="4" stroke-miterlimit="10" d="M248.98,148.872
					c-19.46-21.538-52.206-23.263-73.214-3.857"/>
				<path fill="none" stroke="#0D1910" stroke-width="4" stroke-miterlimit="10" d="M248.982,154.196
					c-19.458,21.537-52.205,23.264-73.214,3.859"/>
				
					<ellipse fill="#0D1910" stroke="#0D1910" stroke-width="4" stroke-miterlimit="10" cx="210.135" cy="152.267" rx="8.177" ry="8.268"/>
				<path fill="#264C87" d="M55.265,130.386c43.646-44.511,104.082-5.277,104.082-5.277c63.362-35.079,95.129,6.409,95.129,6.409
					l-5.494,8.677c0,0-47.106-43.756-80.681,0c0,0-16.198,32.441,24.355,47.151c0,0-33.458,33.948-71.435,0
					c0,0,33.648-15.796,25.814-48.282c0,0-31.117-42.625-82.148,0"/>
				<g>
					<g>
						<path fill="#0096CE" d="M143.919,202.434c10.072,12.447,23.262,0,23.262,0c29.099,15.086-6.684-32.506-6.684-32.506h-9.894
							C150.604,169.928,114.822,217.52,143.919,202.434"/>
					</g>
				</g>
				<path fill="#F3E106" d="M160.498,103.608h74.953c0,0,77.221,47.526-10.073,78.08l-23.42,7.26c0,0-14.214,17.635,16.354,7.451
					l43.997-7.451c0,0,55.958-71.761-36.932-97.787h-64.911"/>
				<path fill="#0096CE" d="M149.752,103.608H74.8c0,0-77.222,47.526,10.072,78.08l23.42,7.26c0,0,14.215,17.635-16.355,7.451
					l-43.996-7.451c0,0-55.958-71.761,36.932-97.787h64.912"/>
				<polygon fill="#0096CE" points="166.062,103.608 138.306,103.608 138.1,91.161 173.897,91.161 				"/>
				<path fill="none" stroke="#C42C27" stroke-width="4" stroke-miterlimit="10" d="M286.891,84.203
					c0,0,37.661,79.695,6.539,127.631"/>
				<path fill="none" stroke="#C42C27" stroke-width="4" stroke-miterlimit="10" d="M275.661,84.203
					c0,0,39.173,76.738,11.23,118.231"/>
				<path fill="none" stroke="#C42C27" stroke-width="4" stroke-miterlimit="10" d="M265.602,84.203
					c0,0,37.959,88.054,10.059,118.231"/>
				<path fill="none" stroke="#264C87" stroke-width="4" stroke-miterlimit="10" d="M24.041,84.203c0,0-37.658,79.695-6.537,127.631
					"/>
				<path fill="none" stroke="#264C87" stroke-width="4" stroke-miterlimit="10" d="M35.272,84.203c0,0-39.17,76.738-11.231,118.231
					"/>
				<path fill="none" stroke="#264C87" stroke-width="4" stroke-miterlimit="10" d="M45.333,84.203
					c0,0-37.961,88.054-10.061,118.231"/>
				<ellipse fill="#06AD79" cx="280" cy="218.803" rx="17.77" ry="17.966"/>
				<ellipse fill="#F3E106" cx="280" cy="218.803" rx="6.892" ry="6.969"/>
				<path fill="#F3E106" d="M280,218.803c0,0,5.654,32.603-4.339,40.745l-13.431-6.571L280,218.803z"/>
				<ellipse fill="#0096CE" cx="34.139" cy="218.803" rx="17.77" ry="17.966"/>
				<ellipse fill="#264C87" cx="34.137" cy="218.803" rx="6.892" ry="6.969"/>
				<path fill="#264C87" d="M32.941,218.803c0,0-5.654,32.603,4.342,40.745l13.429-6.571L32.941,218.803z"/>
				<path fill="none" stroke="#C42C27" stroke-width="4" stroke-miterlimit="10" d="M238.808,84.203c0,0,25.583,8.096,36.853,27.896
					"/>
				<path fill="none" stroke="#264C87" stroke-width="4" stroke-miterlimit="10" d="M72.573,83.437c0,0-25.585,8.096-36.853,27.896"
					/>
				<path fill="#0096CE" d="M292.895,84.203H18.01c0,0,34.56-81.078,143.079-83.455C161.088,0.748,247.916,1.428,292.895,84.203z"/>
				<ellipse fill="#06AD79" cx="205.66" cy="48.134" rx="16.36" ry="25.416"/>
				<ellipse fill="#264C87" cx="106.32" cy="48.134" rx="16.359" ry="25.416"/>
				<ellipse fill="#C42C27" cx="205.66" cy="48.133" rx="8.181" ry="8.271"/>
				<ellipse fill="#3467B1" cx="106.32" cy="48.133" rx="8.181" ry="8.271"/>
				<path fill="#264C87" d="M196.415,10.161c0,0-11.233,54.59-40.718,61.724c0,0-33.544-13.828-37.833-62.974
					C117.864,8.911,157.101-0.489,196.415,10.161z"/>
				<path fill="#3467B1" d="M188.445,4.592c0,0-8.953,43.513-32.455,49.199c0,0-26.737-11.021-30.155-50.195
					C125.834,3.596,157.11-3.897,188.445,4.592z"/>
				<path fill="none" stroke="#0096CE" stroke-width="4" stroke-miterlimit="10" d="M170.539,27.167c0,0-11.189,10.566-26.859,0"/>
				<path fill="none" stroke="#0096CE" stroke-width="4" stroke-miterlimit="10" d="M170.539,18.021c0,0-11.189,10.567-26.859,0"/>
				<ellipse fill="#C54229" cx="236.568" cy="207.966" rx="14.721" ry="8.902"/>
				<ellipse fill="#264C87" cx="79.287" cy="207.966" rx="14.721" ry="8.902"/>
				<path fill="none" stroke="#0D1910" stroke-width="4" stroke-miterlimit="10" d="M66.007,153.064
					c19.458,21.537,52.205,23.263,73.212,3.858"/>
				<path fill="#264C87" d="M156.021,224.64H95.558c0,0-16.79-2.661-17.91,13.404v20.373c0,0-0.363,14.928,17.91,13.797h60.463"/>
				<path fill="#FFFFFF" stroke="#000000" stroke-width="2" stroke-miterlimit="10" d="M156.365,230.722h57.105
					c0,0,9.438,0,9.384,7.355v4.151H87.292v-4.151c-0.055-7.355,9.384-7.355,9.384-7.355h57.105"/>
				<path fill="#FFFFFF" stroke="#000000" stroke-width="2" stroke-miterlimit="10" d="M153.577,265.614H96.471
					c0,0-9.438,0-9.385-7.355v-4.15h135.563v4.15c0.055,7.355-9.385,7.355-9.385,7.355H156.16"/>
				
					<line fill="#FFFFFF" stroke="#000000" stroke-width="2" stroke-miterlimit="10" x1="172.24" y1="265.614" x2="142.04" y2="265.614"/>
				
					<line fill="none" stroke="#000000" stroke-width="2" stroke-miterlimit="10" x1="163.45" y1="230.722" x2="147.409" y2="230.722"/>
				
					<line fill="none" stroke="#000000" stroke-width="2" stroke-miterlimit="10" x1="156.021" y1="230.722" x2="156.021" y2="242.228"/>
				
					<line fill="none" stroke="#000000" stroke-width="2" stroke-miterlimit="10" x1="144.829" y1="230.722" x2="144.829" y2="242.228"/>
				
					<line fill="none" stroke="#000000" stroke-width="2" stroke-miterlimit="10" x1="133.637" y1="230.722" x2="133.637" y2="242.228"/>
				
					<line fill="none" stroke="#000000" stroke-width="2" stroke-miterlimit="10" x1="122.446" y1="230.722" x2="122.446" y2="242.228"/>
				
					<line fill="none" stroke="#000000" stroke-width="2" stroke-miterlimit="10" x1="111.253" y1="230.722" x2="111.253" y2="242.228"/>
				
					<line fill="none" stroke="#000000" stroke-width="2" stroke-miterlimit="10" x1="100.062" y1="230.722" x2="100.062" y2="242.228"/>
				
					<line fill="none" stroke="#000000" stroke-width="2" stroke-miterlimit="10" x1="167.211" y1="230.722" x2="167.211" y2="242.228"/>
				
					<line fill="none" stroke="#000000" stroke-width="2" stroke-miterlimit="10" x1="178.403" y1="230.722" x2="178.403" y2="242.228"/>
				
					<line fill="none" stroke="#000000" stroke-width="2" stroke-miterlimit="10" x1="189.595" y1="230.722" x2="189.595" y2="242.228"/>
				
					<line fill="none" stroke="#000000" stroke-width="2" stroke-miterlimit="10" x1="200.787" y1="230.722" x2="200.787" y2="242.228"/>
				
					<line fill="none" stroke="#000000" stroke-width="2" stroke-miterlimit="10" x1="211.978" y1="230.722" x2="211.978" y2="242.228"/>
				
					<line fill="none" stroke="#000000" stroke-width="2" stroke-miterlimit="10" x1="156.021" y1="254.108" x2="156.021" y2="265.612"/>
				
					<line fill="none" stroke="#000000" stroke-width="2" stroke-miterlimit="10" x1="144.829" y1="254.108" x2="144.829" y2="265.612"/>
				
					<line fill="none" stroke="#000000" stroke-width="2" stroke-miterlimit="10" x1="133.637" y1="254.108" x2="133.637" y2="265.612"/>
				
					<line fill="none" stroke="#000000" stroke-width="2" stroke-miterlimit="10" x1="122.446" y1="254.108" x2="122.446" y2="265.612"/>
				
					<line fill="none" stroke="#000000" stroke-width="2" stroke-miterlimit="10" x1="111.253" y1="254.108" x2="111.253" y2="265.612"/>
				
					<line fill="none" stroke="#000000" stroke-width="2" stroke-miterlimit="10" x1="100.062" y1="254.108" x2="100.062" y2="265.612"/>
				
					<line fill="none" stroke="#000000" stroke-width="2" stroke-miterlimit="10" x1="167.211" y1="254.108" x2="167.211" y2="265.612"/>
				
					<line fill="none" stroke="#000000" stroke-width="2" stroke-miterlimit="10" x1="178.403" y1="254.108" x2="178.403" y2="265.612"/>
				
					<line fill="none" stroke="#000000" stroke-width="2" stroke-miterlimit="10" x1="189.595" y1="254.108" x2="189.595" y2="265.612"/>
				
					<line fill="none" stroke="#000000" stroke-width="2" stroke-miterlimit="10" x1="200.787" y1="254.108" x2="200.787" y2="265.612"/>
				
					<line fill="none" stroke="#000000" stroke-width="2" stroke-miterlimit="10" x1="211.978" y1="254.108" x2="211.978" y2="265.612"/>
				<polygon fill="#0096CE" stroke="#000000" stroke-width="3" stroke-miterlimit="10" points="222.854,242.228 222.649,254.108 
					87.086,254.108 87.292,242.228 				"/>
				<path fill="none" stroke="#264C87" stroke-width="4" stroke-miterlimit="10" d="M222.02,285.793c0,0-64.91,40.737-134.934,0"/>
				<path fill="none" stroke="#F3E106" stroke-width="4" stroke-miterlimit="10" d="M249.183,191.168
					c0,0,39.643,57.289-25.098,109.339"/>
				<path fill="none" stroke="#0096CE" stroke-width="4" stroke-miterlimit="10" d="M66.179,192.301
					c0,0-39.642,57.288,25.096,109.338"/>
			</g>
		</g>
	</g>
</g>
<path opacity="0.32" fill="#001842" d="M204.302,8.845c0,0,9,175.491-196.49,194.99c0,0,28.377,113.605,149.932,114.55
	c0,0,140.938,0,157.686-147.234C315.429,171.15,321.682,36.2,204.302,8.845z"/>
</svg>
