<?xml version="1.0" encoding="utf-8"?>
<!-- Generator: Adobe Illustrator 15.1.0, SVG Export Plug-In . SVG Version: 6.00 Build 0)  -->
<!DOCTYPE svg PUBLIC "-//W3C//DTD SVG 1.1//EN" "http://www.w3.org/Graphics/SVG/1.1/DTD/svg11.dtd">
<svg version="1.1" id="Layer_2" xmlns="http://www.w3.org/2000/svg" xmlns:xlink="http://www.w3.org/1999/xlink" x="0px" y="0px"
	 width="315.487px" height="318.385px" viewBox="0 0 315.487 318.385" enable-background="new 0 0 315.487 318.385"
	 xml:space="preserve">
<g>
	<defs>
		<circle id="SVGID_1_" cx="157.744" cy="159.193" r="158.39"/>
	</defs>
	<clipPath id="SVGID_2_">
		<use xlink:href="#SVGID_1_"  overflow="visible"/>
	</clipPath>
	<g clip-path="url(#SVGID_2_)">
		
			<ellipse fill="none" stroke="#F3E106" stroke-width="3" stroke-miterlimit="10" cx="157.162" cy="159.057" rx="154.778" ry="156.496"/>
		<ellipse fill="#C42C27" cx="158.245" cy="159.402" rx="155.862" ry="157.592"/>
		<g>
			<defs>
				<rect id="SVGID_3_" x="158.119" y="-36.5" width="209.341" height="398.561"/>
			</defs>
			<clipPath id="SVGID_4_">
				<use xlink:href="#SVGID_3_"  overflow="visible"/>
			</clipPath>
			<path clip-path="url(#SVGID_4_)" fill="#D77E64" d="M315.093,158.277c0-87.037-69.782-157.593-155.861-157.593
				C73.152,0.685,3.37,71.24,3.37,158.277c0,87.033,69.782,157.592,155.862,157.592
				C245.311,315.869,315.093,245.311,315.093,158.277z"/>
		</g>
		<g>
			<defs>
				<rect id="SVGID_5_" x="157.667" y="-73.632" width="201.545" height="436.603"/>
			</defs>
			<clipPath id="SVGID_6_">
				<use xlink:href="#SVGID_5_"  overflow="visible"/>
			</clipPath>
			<g clip-path="url(#SVGID_6_)">
				<path fill="#FFFFFF" d="M64.943,148.928c0,0,31.3-34.016,72.846-3.837l-0.004,12.974
					C137.785,158.064,93.793,192.837,64.943,148.928z"/>
				<path fill="#FFFFFF" d="M248.104,147.802c0,0-31.299-34.017-72.843-3.837l0.003,12.974
					C175.264,156.938,219.253,191.711,248.104,147.802z"/>
				<path fill="none" stroke="#0D1910" stroke-width="4" stroke-miterlimit="10" d="M248.307,147.926
					c-19.363-21.428-51.944-23.144-72.845-3.835"/>
				
					<ellipse fill="#0D1910" stroke="#0D1910" stroke-width="4" stroke-miterlimit="10" cx="208.544" cy="151.305" rx="8.137" ry="8.227"/>
				<path fill="none" stroke="#0D1910" stroke-width="4" stroke-miterlimit="10" d="M65.146,149.054
					c19.361-21.43,51.944-23.146,72.845-3.838"/>
				<path fill="none" stroke="#0D1910" stroke-width="4" stroke-miterlimit="10" d="M65.143,154.351
					c19.361,21.429,51.941,23.146,72.845,3.839"/>
				
					<ellipse fill="#0D1910" stroke="#0D1910" stroke-width="4" stroke-miterlimit="10" cx="103.796" cy="152.43" rx="8.136" ry="8.229"/>
				<path fill="#C42C27" d="M257.883,130.66c-43.427-44.285-103.557-5.25-103.557-5.25c-63.041-34.902-94.649,6.377-94.649,6.377
					l5.466,8.633c0,0,46.869-43.535,80.274,0c0,0,16.115,32.277-24.232,46.913c0,0,33.29,33.776,71.074,0
					c0,0-33.479-15.716-25.685-48.039c0,0,30.961-42.409,81.733,0"/>
				<g>
					<g>
						<path fill="#771314" stroke="#771314" stroke-miterlimit="10" d="M169.676,202.346c-10.021,12.383-23.146,0-23.146,0
							c-28.951,15.01,6.652-32.343,6.652-32.343h9.841C163.024,170.003,198.627,217.355,169.676,202.346"/>
					</g>
				</g>
				<path fill="#F3E106" d="M153.183,104.018H78.607c0,0-76.833,47.287,10.021,77.686l23.304,7.225c0,0,14.14,17.545-16.272,7.412
					l-43.776-7.412c0,0-55.676-71.4,36.745-97.294h64.584"/>
				<path fill="#771314" stroke="#771314" stroke-miterlimit="10" d="M163.872,104.018h74.574c0,0,76.831,47.287-10.02,77.686
					l-23.303,7.225c0,0-14.143,17.545,16.271,7.412l43.774-7.412c0,0,55.676-71.4-36.743-97.294H163.84"/>
				<polygon fill="#771314" stroke="#771314" stroke-miterlimit="10" points="147.646,104.018 175.261,104.018 175.466,91.634 
					139.849,91.634 				"/>
				<path fill="none" stroke="#C42C27" stroke-width="4" stroke-miterlimit="10" d="M27.425,84.711c0,0-37.471,79.293-6.505,126.986
					"/>
				<path fill="none" stroke="#C42C27" stroke-width="4" stroke-miterlimit="10" d="M38.599,84.711c0,0-38.975,76.35-11.174,117.635
					"/>
				<path fill="none" stroke="#C42C27" stroke-width="4" stroke-miterlimit="10" d="M48.607,84.711
					c0,0-37.768,87.609-10.008,117.635"/>
				<path fill="none" stroke="#C42C27" stroke-width="4" stroke-miterlimit="10" d="M288.95,84.711c0,0,37.467,79.293,6.506,126.986
					"/>
				<path fill="none" stroke="#C42C27" stroke-width="4" stroke-miterlimit="10" d="M277.776,84.711
					c0,0,38.973,76.35,11.174,117.635"/>
				<path fill="none" stroke="#C42C27" stroke-width="4" stroke-miterlimit="10" d="M267.763,84.711
					c0,0,37.772,87.609,10.013,117.635"/>
				<ellipse fill="#06AD79" cx="34.281" cy="218.631" rx="17.68" ry="17.875"/>
				<ellipse fill="#F3E106" cx="34.282" cy="218.631" rx="6.857" ry="6.934"/>
				<path fill="#F3E106" d="M34.282,218.631c0,0-5.626,32.439,4.317,40.541l13.362-6.538L34.282,218.631z"/>
				<ellipse fill="#771314" stroke="#771314" stroke-miterlimit="10" cx="278.902" cy="218.631" rx="17.681" ry="17.875"/>
				<ellipse fill="#C42C27" cx="278.903" cy="218.631" rx="6.858" ry="6.934"/>
				<path fill="#C42C27" d="M280.094,218.631c0,0,5.626,32.439-4.321,40.541l-13.357-6.538L280.094,218.631z"/>
				<path fill="none" stroke="#C42C27" stroke-width="4" stroke-miterlimit="10" d="M75.267,84.711c0,0-25.455,8.055-36.667,27.755"
					/>
				<path fill="none" stroke="#C42C27" stroke-width="4" stroke-miterlimit="10" d="M240.663,83.948c0,0,25.456,8.056,36.666,27.756
					"/>
				<path fill="#771314" stroke="#771314" stroke-miterlimit="10" d="M22.033,84.711h273.5c0,0-34.384-80.669-142.357-83.035
					C153.175,1.676,66.787,2.354,22.033,84.711z"/>
				<ellipse fill="#06AD79" cx="108.247" cy="48.822" rx="16.278" ry="25.288"/>
				<path fill="#C42C27" d="M223.365,48.822c0,13.966-7.29,25.289-16.277,25.289c-8.991,0-16.279-11.323-16.279-25.289
					c0-13.965,7.288-25.287,16.279-25.287C216.075,23.535,223.365,34.857,223.365,48.822z"/>
				<ellipse fill="#3467B1" cx="108.248" cy="48.822" rx="8.14" ry="8.229"/>
				<ellipse fill="#D77E64" cx="207.085" cy="48.822" rx="8.138" ry="8.229"/>
				<path fill="#C42C27" d="M117.446,11.043c0,0,11.175,54.314,40.512,61.412c0,0,33.375-13.759,37.643-62.656
					C195.6,9.799,156.561,0.446,117.446,11.043z"/>
				<path fill="#D77E64" d="M125.375,5.502c0,0,8.909,43.293,32.293,48.95c0,0,26.601-10.967,30.001-49.941
					C187.668,4.511,156.552-2.945,125.375,5.502z"/>
				<path fill="none" stroke="#771314" stroke-width="4" stroke-miterlimit="10" d="M143.192,27.962c0,0,11.132,10.513,26.722,0"/>
				<path fill="none" stroke="#771314" stroke-width="4" stroke-miterlimit="10" d="M143.192,18.861c0,0,11.132,10.514,26.722,0"/>
				<path fill="#C54229" d="M92.141,207.85c0,4.891-6.556,8.857-14.647,8.857c-8.087,0-14.646-3.967-14.646-8.857
					c0-4.893,6.558-8.857,14.646-8.857C85.585,198.992,92.141,202.957,92.141,207.85z"/>
				<path fill="#C42C27" d="M219.334,207.85c0,4.891,6.561,8.857,14.646,8.857c8.089,0,14.648-3.967,14.648-8.857
					c0-4.893-6.56-8.857-14.648-8.857C225.895,198.992,219.334,202.957,219.334,207.85z"/>
				<path fill="none" stroke="#0D1910" stroke-width="4" stroke-miterlimit="10" d="M247.197,153.225
					c-19.362,21.43-51.943,23.146-72.846,3.839"/>
				<path fill="#C42C27" d="M157.636,224.438h60.156c0,0,16.705-2.647,17.819,13.336v20.271c0,0,0.362,14.854-17.819,13.729h-60.156
					"/>
				<path fill="#FFFFFF" stroke="#000000" stroke-width="2" stroke-miterlimit="10" d="M157.293,230.49h-56.816
					c0,0-9.392,0-9.337,7.318v4.129h134.877v-4.129c0.055-7.318-9.336-7.318-9.336-7.318h-56.818"/>
				<path fill="#FFFFFF" stroke="#000000" stroke-width="2" stroke-miterlimit="10" d="M160.069,265.207h56.815
					c0,0,9.39,0,9.338-7.318v-4.131H91.343v4.131c-0.054,7.318,9.337,7.318,9.337,7.318h56.817"/>
				
					<line fill="#FFFFFF" stroke="#000000" stroke-width="2" stroke-miterlimit="10" x1="141.5" y1="265.207" x2="171.547" y2="265.207"/>
				
					<line fill="none" stroke="#000000" stroke-width="2" stroke-miterlimit="10" x1="150.244" y1="230.49" x2="166.205" y2="230.49"/>
				
					<line fill="none" stroke="#000000" stroke-width="2" stroke-miterlimit="10" x1="157.636" y1="230.49" x2="157.636" y2="241.938"/>
				
					<line fill="none" stroke="#000000" stroke-width="2" stroke-miterlimit="10" x1="168.77" y1="230.49" x2="168.77" y2="241.938"/>
				
					<line fill="none" stroke="#000000" stroke-width="2" stroke-miterlimit="10" x1="179.906" y1="230.49" x2="179.906" y2="241.938"/>
				
					<line fill="none" stroke="#000000" stroke-width="2" stroke-miterlimit="10" x1="191.041" y1="230.49" x2="191.041" y2="241.938"/>
				
					<line fill="none" stroke="#000000" stroke-width="2" stroke-miterlimit="10" x1="202.175" y1="230.49" x2="202.175" y2="241.938"/>
				
					<line fill="none" stroke="#000000" stroke-width="2" stroke-miterlimit="10" x1="213.31" y1="230.49" x2="213.31" y2="241.938"/>
				<line fill="none" stroke="#000000" stroke-width="2" stroke-miterlimit="10" x1="146.5" y1="230.49" x2="146.5" y2="241.938"/>
				
					<line fill="none" stroke="#000000" stroke-width="2" stroke-miterlimit="10" x1="135.365" y1="230.49" x2="135.365" y2="241.938"/>
				
					<line fill="none" stroke="#000000" stroke-width="2" stroke-miterlimit="10" x1="124.231" y1="230.49" x2="124.231" y2="241.938"/>
				
					<line fill="none" stroke="#000000" stroke-width="2" stroke-miterlimit="10" x1="113.094" y1="230.49" x2="113.094" y2="241.938"/>
				
					<line fill="none" stroke="#000000" stroke-width="2" stroke-miterlimit="10" x1="101.959" y1="230.49" x2="101.959" y2="241.938"/>
				
					<line fill="none" stroke="#000000" stroke-width="2" stroke-miterlimit="10" x1="157.636" y1="253.758" x2="157.636" y2="265.205"/>
				
					<line fill="none" stroke="#000000" stroke-width="2" stroke-miterlimit="10" x1="168.77" y1="253.758" x2="168.77" y2="265.205"/>
				
					<line fill="none" stroke="#000000" stroke-width="2" stroke-miterlimit="10" x1="179.906" y1="253.758" x2="179.906" y2="265.205"/>
				
					<line fill="none" stroke="#000000" stroke-width="2" stroke-miterlimit="10" x1="191.041" y1="253.758" x2="191.041" y2="265.205"/>
				
					<line fill="none" stroke="#000000" stroke-width="2" stroke-miterlimit="10" x1="202.175" y1="253.758" x2="202.175" y2="265.205"/>
				
					<line fill="none" stroke="#000000" stroke-width="2" stroke-miterlimit="10" x1="213.31" y1="253.758" x2="213.31" y2="265.205"/>
				<line fill="none" stroke="#000000" stroke-width="2" stroke-miterlimit="10" x1="146.5" y1="253.758" x2="146.5" y2="265.205"/>
				
					<line fill="none" stroke="#000000" stroke-width="2" stroke-miterlimit="10" x1="135.365" y1="253.758" x2="135.365" y2="265.205"/>
				
					<line fill="none" stroke="#000000" stroke-width="2" stroke-miterlimit="10" x1="124.231" y1="253.758" x2="124.231" y2="265.205"/>
				
					<line fill="none" stroke="#000000" stroke-width="2" stroke-miterlimit="10" x1="113.094" y1="253.758" x2="113.094" y2="265.205"/>
				
					<line fill="none" stroke="#000000" stroke-width="2" stroke-miterlimit="10" x1="101.959" y1="253.758" x2="101.959" y2="265.205"/>
				<polygon fill="#771314" stroke="#000000" stroke-width="3" stroke-miterlimit="10" points="91.14,241.938 91.343,253.758 
					226.222,253.758 226.017,241.938 				"/>
				<path fill="none" stroke="#C42C27" stroke-width="4" stroke-miterlimit="10" d="M91.969,285.285c0,0,64.583,40.53,134.253,0"/>
				<path fill="none" stroke="#F3E106" stroke-width="4" stroke-miterlimit="10" d="M64.943,191.137c0,0-39.442,57,24.97,108.788"/>
				<path fill="none" stroke="#771314" stroke-width="4" stroke-miterlimit="10" d="M247.023,192.263
					c0,0,39.444,56.999-24.968,108.788"/>
			</g>
		</g>
		<g>
			<defs>
				<rect id="SVGID_7_" x="-44.384" y="-73.761" width="201.546" height="436.602"/>
			</defs>
			<clipPath id="SVGID_8_">
				<use xlink:href="#SVGID_7_"  overflow="visible"/>
			</clipPath>
			<g clip-path="url(#SVGID_8_)">
				<path fill="#FFFFFF" d="M249.886,148.799c0,0-31.299-34.016-72.846-3.838l0.003,12.975
					C177.043,157.936,221.035,192.707,249.886,148.799z"/>
				<path fill="#FFFFFF" d="M66.724,147.673c0,0,31.302-34.017,72.843-3.837l-0.002,12.973
					C139.565,156.809,95.576,191.582,66.724,147.673z"/>
				<path fill="none" stroke="#0D1910" stroke-width="4" stroke-miterlimit="10" d="M66.521,147.799
					c19.363-21.43,51.945-23.146,72.845-3.838"/>
				
					<ellipse fill="#0D1910" stroke="#0D1910" stroke-width="4" stroke-miterlimit="10" cx="106.284" cy="151.176" rx="8.136" ry="8.227"/>
				<path fill="none" stroke="#0D1910" stroke-width="4" stroke-miterlimit="10" d="M249.685,148.924
					c-19.363-21.43-51.944-23.146-72.848-3.837"/>
				<path fill="none" stroke="#0D1910" stroke-width="4" stroke-miterlimit="10" d="M249.687,154.221
					c-19.363,21.429-51.943,23.148-72.847,3.842"/>
				
					<ellipse fill="#0D1910" stroke="#0D1910" stroke-width="4" stroke-miterlimit="10" cx="211.034" cy="152.303" rx="8.135" ry="8.226"/>
				<path fill="#771314" stroke="#771314" stroke-miterlimit="10" d="M56.945,130.531c43.427-44.286,103.557-5.25,103.557-5.25
					c63.04-34.902,94.648,6.376,94.648,6.376l-5.464,8.634c0,0-46.871-43.535-80.277,0c0,0-16.114,32.277,24.234,46.912
					c0,0-33.288,33.777-71.075,0c0,0,33.479-15.715,25.686-48.037c0,0-30.962-42.41-81.735,0"/>
				<g>
					<path fill="#D77E64" d="M145.153,202.217c10.022,12.384,23.144,0,23.144,0c28.952,15.01-6.649-32.344-6.649-32.344h-9.844
						C151.803,169.873,116.203,217.227,145.153,202.217"/>
				</g>
				<path fill="#F3E106" d="M161.647,103.889h74.574c0,0,76.831,47.287-10.02,77.686l-23.303,7.225c0,0-14.142,17.546,16.27,7.412
					l43.776-7.412c0,0,55.677-71.4-36.743-97.295h-64.584"/>
				<path fill="#D77E64" d="M150.957,103.889H76.382c0,0-76.832,47.287,10.022,77.686l23.3,7.225c0,0,14.144,17.546-16.272,7.412
					l-43.774-7.412c0,0-55.676-71.4,36.746-97.295h64.584"/>
				<polygon fill="#D77E64" points="167.183,103.889 139.567,103.889 139.364,91.504 174.979,91.504 				"/>
				<path fill="none" stroke="#C42C27" stroke-width="4" stroke-miterlimit="10" d="M287.403,84.581
					c0,0,37.472,79.294,6.505,126.987"/>
				<path fill="none" stroke="#C42C27" stroke-width="4" stroke-miterlimit="10" d="M276.23,84.581
					c0,0,38.975,76.351,11.173,117.636"/>
				<path fill="none" stroke="#C42C27" stroke-width="4" stroke-miterlimit="10" d="M266.221,84.581
					c0,0,37.769,87.61,10.009,117.636"/>
				<path fill="none" stroke="#771314" stroke-width="4" stroke-miterlimit="10" d="M25.878,84.581c0,0-37.467,79.294-6.505,126.987
					"/>
				<path fill="none" stroke="#771314" stroke-width="4" stroke-miterlimit="10" d="M37.054,84.581
					c0,0-38.973,76.351-11.175,117.636"/>
				<path fill="none" stroke="#771314" stroke-width="4" stroke-miterlimit="10" d="M47.063,84.581c0,0-37.77,87.61-10.01,117.636"
					/>
				<ellipse fill="#06AD79" cx="280.548" cy="218.502" rx="17.68" ry="17.877"/>
				<path fill="#F3E106" d="M273.69,218.502c0-3.83,3.071-6.934,6.854-6.934c3.791,0,6.858,3.104,6.858,6.934
					c0,3.829-3.067,6.934-6.858,6.934C276.761,225.436,273.69,222.331,273.69,218.502z"/>
				<path fill="#F3E106" d="M280.544,218.502c0,0,5.629,32.439-4.314,40.541l-13.362-6.538L280.544,218.502z"/>
				<ellipse fill="#D77E64" cx="35.925" cy="218.502" rx="17.68" ry="17.877"/>
				<ellipse fill="#771314" stroke="#771314" stroke-miterlimit="10" cx="35.925" cy="218.502" rx="6.857" ry="6.934"/>
				<path fill="#771314" stroke="#771314" stroke-miterlimit="10" d="M34.734,218.502c0,0-5.625,32.439,4.32,40.541l13.361-6.538
					L34.734,218.502z"/>
				<path fill="none" stroke="#C42C27" stroke-width="4" stroke-miterlimit="10" d="M239.563,84.581c0,0,25.454,8.056,36.667,27.756
					"/>
				<path fill="none" stroke="#771314" stroke-width="4" stroke-miterlimit="10" d="M74.167,83.819c0,0-25.457,8.056-36.667,27.755"
					/>
				<path fill="#D77E64" d="M293.378,84.581H19.877c0,0,34.386-80.669,142.358-83.032C162.236,1.549,248.625,2.225,293.378,84.581z"
					/>
				<ellipse fill="#06AD79" cx="206.583" cy="48.694" rx="16.277" ry="25.287"/>
				<ellipse fill="#771314" stroke="#771314" stroke-miterlimit="10" cx="107.743" cy="48.694" rx="16.278" ry="25.288"/>
				<ellipse fill="#C42C27" cx="206.581" cy="48.693" rx="8.139" ry="8.229"/>
				<ellipse fill="#C42C27" cx="107.742" cy="48.693" rx="8.139" ry="8.229"/>
				<path fill="#771314" stroke="#771314" stroke-miterlimit="10" d="M197.383,10.913c0,0-11.177,54.315-40.514,61.413
					c0,0-33.374-13.758-37.641-62.656C119.229,9.67,158.267,0.317,197.383,10.913z"/>
				<path fill="#C42C27" d="M189.455,5.373c0,0-8.91,43.293-32.292,48.949c0,0-26.602-10.965-30.004-49.94
					C127.159,4.382,158.277-3.073,189.455,5.373z"/>
				<path fill="none" stroke="#D77E64" stroke-width="4" stroke-miterlimit="10" d="M171.636,27.833c0,0-11.132,10.513-26.723,0"/>
				<path fill="none" stroke="#D77E64" stroke-width="4" stroke-miterlimit="10" d="M171.636,18.733c0,0-11.132,10.514-26.723,0"/>
				<path fill="#C54229" d="M222.689,207.721c0,4.891,6.556,8.857,14.648,8.857c8.087,0,14.642-3.967,14.642-8.857
					c0-4.893-6.555-8.857-14.642-8.857C229.245,198.863,222.689,202.828,222.689,207.721z"/>
				<ellipse fill="#771314" stroke="#771314" stroke-miterlimit="10" cx="80.847" cy="207.721" rx="14.647" ry="8.857"/>
				<path fill="none" stroke="#0D1910" stroke-width="4" stroke-miterlimit="10" d="M67.633,153.096
					c19.359,21.428,51.943,23.146,72.845,3.839"/>
				<path fill="#771314" stroke="#771314" stroke-miterlimit="10" d="M157.193,224.311H97.035c0,0-16.705-2.648-17.818,13.336
					v20.271c0,0-0.362,14.853,17.818,13.728h60.158"/>
				<path fill="#FFFFFF" stroke="#000000" stroke-width="2" stroke-miterlimit="10" d="M157.536,230.361h56.817
					c0,0,9.392,0,9.337,7.318v4.13H88.811v-4.13c-0.054-7.318,9.337-7.318,9.337-7.318h56.818"/>
				<path fill="#FFFFFF" stroke="#000000" stroke-width="2" stroke-miterlimit="10" d="M154.762,265.078H97.945
					c0,0-9.392,0-9.338-7.318v-4.129h134.878v4.129c0.056,7.318-9.337,7.318-9.337,7.318h-56.816"/>
				
					<line fill="#FFFFFF" stroke="#000000" stroke-width="2" stroke-miterlimit="10" x1="173.332" y1="265.078" x2="143.283" y2="265.078"/>
				
					<line fill="none" stroke="#000000" stroke-width="2" stroke-miterlimit="10" x1="164.585" y1="230.361" x2="148.625" y2="230.361"/>
				
					<line fill="none" stroke="#000000" stroke-width="2" stroke-miterlimit="10" x1="157.193" y1="230.361" x2="157.193" y2="241.81"/>
				
					<line fill="none" stroke="#000000" stroke-width="2" stroke-miterlimit="10" x1="146.057" y1="230.361" x2="146.057" y2="241.81"/>
				
					<line fill="none" stroke="#000000" stroke-width="2" stroke-miterlimit="10" x1="134.921" y1="230.361" x2="134.921" y2="241.81"/>
				
					<line fill="none" stroke="#000000" stroke-width="2" stroke-miterlimit="10" x1="123.787" y1="230.361" x2="123.787" y2="241.81"/>
				
					<line fill="none" stroke="#000000" stroke-width="2" stroke-miterlimit="10" x1="112.653" y1="230.361" x2="112.653" y2="241.81"/>
				
					<line fill="none" stroke="#000000" stroke-width="2" stroke-miterlimit="10" x1="101.517" y1="230.361" x2="101.517" y2="241.81"/>
				
					<line fill="none" stroke="#000000" stroke-width="2" stroke-miterlimit="10" x1="168.33" y1="230.361" x2="168.33" y2="241.81"/>
				
					<line fill="none" stroke="#000000" stroke-width="2" stroke-miterlimit="10" x1="179.462" y1="230.361" x2="179.462" y2="241.81"/>
				
					<line fill="none" stroke="#000000" stroke-width="2" stroke-miterlimit="10" x1="190.599" y1="230.361" x2="190.599" y2="241.81"/>
				
					<line fill="none" stroke="#000000" stroke-width="2" stroke-miterlimit="10" x1="201.734" y1="230.361" x2="201.734" y2="241.81"/>
				
					<line fill="none" stroke="#000000" stroke-width="2" stroke-miterlimit="10" x1="212.867" y1="230.361" x2="212.867" y2="241.81"/>
				
					<line fill="none" stroke="#000000" stroke-width="2" stroke-miterlimit="10" x1="157.193" y1="253.631" x2="157.193" y2="265.076"/>
				
					<line fill="none" stroke="#000000" stroke-width="2" stroke-miterlimit="10" x1="146.057" y1="253.631" x2="146.057" y2="265.076"/>
				
					<line fill="none" stroke="#000000" stroke-width="2" stroke-miterlimit="10" x1="134.921" y1="253.631" x2="134.921" y2="265.076"/>
				
					<line fill="none" stroke="#000000" stroke-width="2" stroke-miterlimit="10" x1="123.787" y1="253.631" x2="123.787" y2="265.076"/>
				
					<line fill="none" stroke="#000000" stroke-width="2" stroke-miterlimit="10" x1="112.653" y1="253.631" x2="112.653" y2="265.076"/>
				
					<line fill="none" stroke="#000000" stroke-width="2" stroke-miterlimit="10" x1="101.517" y1="253.631" x2="101.517" y2="265.076"/>
				
					<line fill="none" stroke="#000000" stroke-width="2" stroke-miterlimit="10" x1="168.33" y1="253.631" x2="168.33" y2="265.076"/>
				
					<line fill="none" stroke="#000000" stroke-width="2" stroke-miterlimit="10" x1="179.462" y1="253.631" x2="179.462" y2="265.076"/>
				
					<line fill="none" stroke="#000000" stroke-width="2" stroke-miterlimit="10" x1="190.599" y1="253.631" x2="190.599" y2="265.076"/>
				
					<line fill="none" stroke="#000000" stroke-width="2" stroke-miterlimit="10" x1="201.734" y1="253.631" x2="201.734" y2="265.076"/>
				
					<line fill="none" stroke="#000000" stroke-width="2" stroke-miterlimit="10" x1="212.867" y1="253.631" x2="212.867" y2="265.076"/>
				<polygon fill="#D77E64" stroke="#000000" stroke-width="3" stroke-miterlimit="10" points="223.69,241.81 223.485,253.631 
					88.607,253.631 88.811,241.81 				"/>
				<path fill="none" stroke="#771314" stroke-width="4" stroke-miterlimit="10" d="M222.86,285.154c0,0-64.583,40.532-134.253,0"/>
				<path fill="none" stroke="#F3E106" stroke-width="4" stroke-miterlimit="10" d="M249.886,191.008c0,0,39.443,57-24.972,108.789"
					/>
				<path fill="none" stroke="#D77E64" stroke-width="4" stroke-miterlimit="10" d="M67.805,192.135
					c0,0-39.442,56.999,24.968,108.787"/>
			</g>
		</g>
	</g>
</g>
<path opacity="0.32" fill="#530000" stroke="#771314" stroke-miterlimit="10" d="M204.396,8.845c0,0,9,175.491-196.49,194.99
	c0,0,28.377,113.604,149.931,114.55c0,0,140.939,0,157.686-147.234C315.523,171.15,321.777,36.2,204.396,8.845z"/>
</svg>
