<?xml version="1.0" encoding="utf-8"?>
<!-- Generator: Adobe Illustrator 15.1.0, SVG Export Plug-In . SVG Version: 6.00 Build 0)  -->
<!DOCTYPE svg PUBLIC "-//W3C//DTD SVG 1.1//EN" "http://www.w3.org/Graphics/SVG/1.1/DTD/svg11.dtd">
<svg version="1.1" id="Layer_2" xmlns="http://www.w3.org/2000/svg" xmlns:xlink="http://www.w3.org/1999/xlink" x="0px" y="0px"
	 width="315.487px" height="318.385px" viewBox="0 0 315.487 318.385" enable-background="new 0 0 315.487 318.385"
	 xml:space="preserve">
<g>
	<g>
		<defs>
			<circle id="SVGID_1_" cx="156.442" cy="159.442" r="157.442"/>
		</defs>
		<clipPath id="SVGID_2_">
			<use xlink:href="#SVGID_1_"  overflow="visible"/>
		</clipPath>
		<g clip-path="url(#SVGID_2_)">
			
				<ellipse fill="none" stroke="#F3E106" stroke-width="3" stroke-miterlimit="10" cx="159.251" cy="158.216" rx="153.853" ry="155.561"/>
			<ellipse fill="#F3E106" cx="160.327" cy="158.56" rx="154.929" ry="156.65"/>
			<g>
				<defs>
					<rect id="SVGID_3_" x="160.202" y="-36.171" width="208.086" height="396.176"/>
				</defs>
				<clipPath id="SVGID_4_">
					<use xlink:href="#SVGID_3_"  overflow="visible"/>
				</clipPath>
				<ellipse clip-path="url(#SVGID_4_)" fill="#FFEEA0" cx="161.309" cy="157.44" rx="154.929" ry="156.649"/>
			</g>
			<g>
				<defs>
					<rect id="SVGID_5_" x="159.752" y="-73.081" width="200.34" height="433.99"/>
				</defs>
				<clipPath id="SVGID_6_">
					<use xlink:href="#SVGID_5_"  overflow="visible"/>
				</clipPath>
				<g clip-path="url(#SVGID_6_)">
					<path fill="#FFFFFF" d="M67.583,148.148c0,0,31.113-33.813,72.41-3.814l-0.002,12.896
						C139.991,157.229,96.262,191.794,67.583,148.148z"/>
					<path fill="#FFFFFF" d="M249.65,147.028c0,0-31.113-33.813-72.407-3.813l0.002,12.896
						C177.245,156.11,220.971,190.674,249.65,147.028z"/>
					<path fill="none" stroke="#0D1910" stroke-width="4" stroke-miterlimit="10" d="M249.852,147.152
						c-19.248-21.3-51.634-23.006-72.41-3.813"/>
					
						<ellipse fill="#0D1910" stroke="#0D1910" stroke-width="4" stroke-miterlimit="10" cx="210.325" cy="150.511" rx="8.087" ry="8.177"/>
					<path fill="none" stroke="#0D1910" stroke-width="4" stroke-miterlimit="10" d="M67.785,148.272
						c19.248-21.302,51.632-23.007,72.409-3.814"/>
					<path fill="none" stroke="#0D1910" stroke-width="4" stroke-miterlimit="10" d="M67.782,153.538
						c19.247,21.3,51.632,23.007,72.41,3.815"/>
					
						<ellipse fill="#0D1910" stroke="#0D1910" stroke-width="4" stroke-miterlimit="10" cx="106.203" cy="151.629" rx="8.088" ry="8.178"/>
					<path fill="#F3E106" d="M259.37,129.99c-43.168-44.021-102.938-5.22-102.938-5.22c-62.664-34.693-94.083,6.339-94.083,6.339
						l5.433,8.581c0,0,46.589-43.275,79.794,0c0,0,16.019,32.084-24.087,46.633c0,0,33.09,33.575,70.648,0
						c0,0-33.277-15.622-25.528-47.751c0,0,30.774-42.157,81.244,0"/>
					<g>
						<path fill="#B49612" d="M171.689,201.246c-9.96,12.311-23.005,0-23.005,0c-28.779,14.921,6.61-32.149,6.61-32.149h9.784
							C165.079,169.097,200.468,216.167,171.689,201.246"/>
					</g>
					<path fill="#F3E106" d="M155.295,103.506H81.167c0,0-76.374,47.005,9.961,77.221l23.163,7.181c0,0,14.058,17.44-16.175,7.368
						l-43.512-7.368c0,0-55.344-70.972,36.524-96.712h64.197"/>
					<path fill="#B49612" d="M165.922,103.506h74.127c0,0,76.373,47.005-9.962,77.221l-23.162,7.181c0,0-14.057,17.44,16.177,7.368
						l43.511-7.368c0,0,55.344-70.972-36.525-96.712H165.89"/>
					<polygon fill="#B49612" points="149.791,103.506 177.243,103.506 177.445,91.196 142.043,91.196 					"/>
					<path fill="none" stroke="#C42C27" stroke-width="4" stroke-miterlimit="10" d="M30.291,84.314
						c0,0-37.247,78.819-6.466,126.227"/>
					<path fill="none" stroke="#C42C27" stroke-width="4" stroke-miterlimit="10" d="M41.397,84.314
						c0,0-38.741,75.895-11.106,116.931"/>
					<path fill="none" stroke="#C42C27" stroke-width="4" stroke-miterlimit="10" d="M51.346,84.314
						c0,0-37.542,87.085-9.949,116.931"/>
					<path fill="none" stroke="#F3E106" stroke-width="4" stroke-miterlimit="10" d="M290.25,84.314
						c0,0,37.244,78.819,6.465,126.227"/>
					<path fill="none" stroke="#F3E106" stroke-width="4" stroke-miterlimit="10" d="M279.143,84.314
						c0,0,38.74,75.895,11.107,116.931"/>
					<path fill="none" stroke="#F3E106" stroke-width="4" stroke-miterlimit="10" d="M269.193,84.314
						c0,0,37.543,87.085,9.95,116.931"/>
					<ellipse fill="#06AD79" cx="37.106" cy="217.433" rx="17.573" ry="17.769"/>
					<ellipse fill="#F3E106" cx="37.107" cy="217.433" rx="6.816" ry="6.892"/>
					<path fill="#F3E106" d="M37.107,217.433c0,0-5.594,32.246,4.291,40.299l13.282-6.499L37.107,217.433z"/>
					<ellipse fill="#B49612" cx="280.264" cy="217.433" rx="17.575" ry="17.769"/>
					<path fill="#F3E106" d="M287.08,217.433c0-3.807-3.053-6.892-6.814-6.892c-3.768,0-6.816,3.085-6.816,6.892
						c0,3.806,3.049,6.893,6.816,6.893C284.027,224.326,287.08,221.239,287.08,217.433z"/>
					<path fill="#F3E106" d="M281.448,217.433c0,0,5.592,32.246-4.294,40.299l-13.282-6.499L281.448,217.433z"/>
					<path fill="none" stroke="#C42C27" stroke-width="4" stroke-miterlimit="10" d="M77.846,84.314c0,0-25.303,8.007-36.448,27.59"
						/>
					<path fill="none" stroke="#F3E106" stroke-width="4" stroke-miterlimit="10" d="M242.251,83.558
						c0,0,25.304,8.006,36.448,27.589"/>
					<path fill="#B49612" d="M24.931,84.314h271.863c0,0-34.18-80.186-141.506-82.538C155.288,1.777,69.416,2.451,24.931,84.314z"/>
					<ellipse fill="#06AD79" cx="110.628" cy="48.642" rx="16.181" ry="25.137"/>
					<ellipse fill="#F3E106" cx="208.876" cy="48.642" rx="16.179" ry="25.137"/>
					<ellipse fill="#3467B1" cx="110.629" cy="48.641" rx="8.091" ry="8.179"/>
					<ellipse fill="#FFEEA0" cx="208.877" cy="48.641" rx="8.09" ry="8.179"/>
					<path fill="#F3E106" d="M119.772,11.088c0,0,11.11,53.989,40.27,61.044c0,0,33.176-13.675,37.417-62.28
						C197.458,9.852,158.652,0.555,119.772,11.088z"/>
					<path fill="#FFEEA0" d="M127.653,5.58c0,0,8.855,43.034,32.099,48.657c0,0,26.443-10.9,29.824-49.643
						C189.576,4.594,158.645-2.815,127.653,5.58z"/>
					<path fill="none" stroke="#B49612" stroke-width="4" stroke-miterlimit="10" d="M145.363,27.906c0,0,11.066,10.45,26.565,0"/>
					<path fill="none" stroke="#B49612" stroke-width="4" stroke-miterlimit="10" d="M145.363,18.86c0,0,11.066,10.451,26.565,0"/>
					<ellipse fill="#C54229" cx="80.06" cy="206.717" rx="14.56" ry="8.804"/>
					<path fill="#F3E106" d="M221.052,206.717c0,4.861,6.521,8.804,14.559,8.804c8.042,0,14.561-3.942,14.561-8.804
						c0-4.864-6.519-8.806-14.561-8.806C227.572,197.912,221.052,201.853,221.052,206.717z"/>
					<path fill="none" stroke="#0D1910" stroke-width="4" stroke-miterlimit="10" d="M248.747,152.418
						c-19.247,21.301-51.633,23.008-72.408,3.816"/>
					<path fill="#F3E106" d="M159.721,223.206h59.799c0,0,16.605-2.631,17.712,13.257v20.149c0,0,0.361,14.766-17.712,13.647
						h-59.799"/>
					<path fill="#FFFFFF" stroke="#000000" stroke-width="2" stroke-miterlimit="10" d="M159.381,229.223h-56.477
						c0,0-9.334,0-9.28,7.273v4.104h134.071v-4.104c0.054-7.273-9.283-7.273-9.283-7.273h-56.477"/>
					<path fill="#FFFFFF" stroke="#000000" stroke-width="2" stroke-miterlimit="10" d="M162.14,263.731h56.477
						c0,0,9.334,0,9.28-7.274v-4.105H93.827v4.105c-0.055,7.274,9.28,7.274,9.28,7.274h56.477"/>
					
						<line fill="#FFFFFF" stroke="#000000" stroke-width="2" stroke-miterlimit="10" x1="143.681" y1="263.731" x2="173.55" y2="263.731"/>
					
						<line fill="none" stroke="#000000" stroke-width="2" stroke-miterlimit="10" x1="152.374" y1="229.223" x2="168.239" y2="229.223"/>
					
						<line fill="none" stroke="#000000" stroke-width="2" stroke-miterlimit="10" x1="159.721" y1="229.223" x2="159.721" y2="240.601"/>
					
						<line fill="none" stroke="#000000" stroke-width="2" stroke-miterlimit="10" x1="170.791" y1="229.223" x2="170.791" y2="240.601"/>
					
						<line fill="none" stroke="#000000" stroke-width="2" stroke-miterlimit="10" x1="181.858" y1="229.223" x2="181.858" y2="240.601"/>
					
						<line fill="none" stroke="#000000" stroke-width="2" stroke-miterlimit="10" x1="192.926" y1="229.223" x2="192.926" y2="240.601"/>
					
						<line fill="none" stroke="#000000" stroke-width="2" stroke-miterlimit="10" x1="203.996" y1="229.223" x2="203.996" y2="240.601"/>
					
						<line fill="none" stroke="#000000" stroke-width="2" stroke-miterlimit="10" x1="215.063" y1="229.223" x2="215.063" y2="240.601"/>
					
						<line fill="none" stroke="#000000" stroke-width="2" stroke-miterlimit="10" x1="148.652" y1="229.223" x2="148.652" y2="240.601"/>
					
						<line fill="none" stroke="#000000" stroke-width="2" stroke-miterlimit="10" x1="137.585" y1="229.223" x2="137.585" y2="240.601"/>
					
						<line fill="none" stroke="#000000" stroke-width="2" stroke-miterlimit="10" x1="126.518" y1="229.223" x2="126.518" y2="240.601"/>
					
						<line fill="none" stroke="#000000" stroke-width="2" stroke-miterlimit="10" x1="115.449" y1="229.223" x2="115.449" y2="240.601"/>
					
						<line fill="none" stroke="#000000" stroke-width="2" stroke-miterlimit="10" x1="104.38" y1="229.223" x2="104.38" y2="240.601"/>
					
						<line fill="none" stroke="#000000" stroke-width="2" stroke-miterlimit="10" x1="159.721" y1="252.352" x2="159.721" y2="263.729"/>
					
						<line fill="none" stroke="#000000" stroke-width="2" stroke-miterlimit="10" x1="170.791" y1="252.352" x2="170.791" y2="263.729"/>
					
						<line fill="none" stroke="#000000" stroke-width="2" stroke-miterlimit="10" x1="181.858" y1="252.352" x2="181.858" y2="263.729"/>
					
						<line fill="none" stroke="#000000" stroke-width="2" stroke-miterlimit="10" x1="192.926" y1="252.352" x2="192.926" y2="263.729"/>
					
						<line fill="none" stroke="#000000" stroke-width="2" stroke-miterlimit="10" x1="203.996" y1="252.352" x2="203.996" y2="263.729"/>
					
						<line fill="none" stroke="#000000" stroke-width="2" stroke-miterlimit="10" x1="215.063" y1="252.352" x2="215.063" y2="263.729"/>
					
						<line fill="none" stroke="#000000" stroke-width="2" stroke-miterlimit="10" x1="148.652" y1="252.352" x2="148.652" y2="263.729"/>
					
						<line fill="none" stroke="#000000" stroke-width="2" stroke-miterlimit="10" x1="137.585" y1="252.352" x2="137.585" y2="263.729"/>
					
						<line fill="none" stroke="#000000" stroke-width="2" stroke-miterlimit="10" x1="126.518" y1="252.352" x2="126.518" y2="263.729"/>
					
						<line fill="none" stroke="#000000" stroke-width="2" stroke-miterlimit="10" x1="115.449" y1="252.352" x2="115.449" y2="263.729"/>
					
						<line fill="none" stroke="#000000" stroke-width="2" stroke-miterlimit="10" x1="104.38" y1="252.352" x2="104.38" y2="263.729"/>
					<polygon fill="#B49612" stroke="#000000" stroke-width="3" stroke-miterlimit="10" points="93.624,240.601 93.827,252.352 
						227.896,252.352 227.695,240.601 					"/>
					<path fill="none" stroke="#F3E106" stroke-width="4" stroke-miterlimit="10" d="M94.447,283.688c0,0,64.198,40.289,133.449,0"
						/>
					<path fill="none" stroke="#F3E106" stroke-width="4" stroke-miterlimit="10" d="M67.583,190.104
						c0,0-39.207,56.659,24.821,108.137"/>
					<path fill="none" stroke="#B49612" stroke-width="4" stroke-miterlimit="10" d="M248.575,191.223
						c0,0,39.207,56.659-24.82,108.137"/>
				</g>
			</g>
			<g>
				<defs>
					<rect id="SVGID_7_" x="-41.089" y="-73.208" width="200.34" height="433.99"/>
				</defs>
				<clipPath id="SVGID_8_">
					<use xlink:href="#SVGID_7_"  overflow="visible"/>
				</clipPath>
				<g clip-path="url(#SVGID_8_)">
					<path fill="#FFFFFF" d="M251.421,148.019c0,0-31.112-33.812-72.411-3.814l0.003,12.897
						C179.013,157.102,222.741,191.666,251.421,148.019z"/>
					<path fill="#FFFFFF" d="M69.354,146.901c0,0,31.114-33.813,72.406-3.815v12.896C141.76,155.982,98.033,190.547,69.354,146.901z
						"/>
					<path fill="none" stroke="#0D1910" stroke-width="4" stroke-miterlimit="10" d="M69.152,147.025
						c19.248-21.301,51.634-23.007,72.409-3.813"/>
					
						<ellipse fill="#0D1910" stroke="#0D1910" stroke-width="4" stroke-miterlimit="10" cx="108.677" cy="150.382" rx="8.087" ry="8.178"/>
					<path fill="none" stroke="#0D1910" stroke-width="4" stroke-miterlimit="10" d="M251.22,148.145
						c-19.248-21.302-51.634-23.008-72.411-3.814"/>
					<path fill="none" stroke="#0D1910" stroke-width="4" stroke-miterlimit="10" d="M251.221,153.409
						c-19.245,21.301-51.632,23.009-72.41,3.817"/>
					
						<ellipse fill="#0D1910" stroke="#0D1910" stroke-width="4" stroke-miterlimit="10" cx="212.801" cy="151.501" rx="8.087" ry="8.177"/>
					<path fill="#B49612" d="M59.634,129.862c43.167-44.022,102.938-5.22,102.938-5.22c62.665-34.693,94.083,6.338,94.083,6.338
						l-5.433,8.582c0,0-46.59-43.275-79.795,0c0,0-16.019,32.084,24.088,46.632c0,0-33.089,33.575-70.649,0
						c0,0,33.28-15.623,25.533-47.751c0,0-30.779-42.156-81.247,0"/>
					<g>
						<path fill="#FFEEA0" d="M147.314,201.117c9.961,12.31,23.005,0,23.005,0c28.78,14.92-6.611-32.149-6.611-32.149h-9.783
							C153.925,168.968,118.536,216.038,147.314,201.117"/>
					</g>
					<path fill="#F3E106" d="M163.708,103.378h74.13c0,0,76.372,47.003-9.959,77.221l-23.165,7.181c0,0-14.057,17.44,16.174,7.367
						l43.514-7.367c0,0,55.343-70.972-36.523-96.712h-64.2"/>
					<path fill="#FFEEA0" d="M153.083,103.378H78.955c0,0-76.375,47.003,9.962,77.221l23.161,7.181c0,0,14.059,17.44-16.175,7.367
						l-43.512-7.367c0,0-55.342-70.972,36.526-96.712h64.197"/>
					<polygon fill="#FFEEA0" points="169.211,103.378 141.76,103.378 141.559,91.068 176.961,91.068 					"/>
					<path fill="none" stroke="#C42C27" stroke-width="4" stroke-miterlimit="10" d="M288.713,84.186
						c0,0,37.248,78.818,6.467,126.228"/>
					<path fill="none" stroke="#C42C27" stroke-width="4" stroke-miterlimit="10" d="M277.607,84.186
						c0,0,38.74,75.894,11.105,116.931"/>
					<path fill="none" stroke="#C42C27" stroke-width="4" stroke-miterlimit="10" d="M267.658,84.186
						c0,0,37.543,87.087,9.95,116.931"/>
					<path fill="none" stroke="#B49612" stroke-width="4" stroke-miterlimit="10" d="M28.753,84.186
						c0,0-37.245,78.818-6.465,126.228"/>
					<path fill="none" stroke="#B49612" stroke-width="4" stroke-miterlimit="10" d="M39.861,84.186
						c0,0-38.739,75.894-11.107,116.931"/>
					<path fill="none" stroke="#B49612" stroke-width="4" stroke-miterlimit="10" d="M49.81,84.186c0,0-37.542,87.087-9.949,116.931
						"/>
					<path fill="#06AD79" d="M264.325,217.307c0,9.813,7.867,17.768,17.571,17.768c9.708,0,17.576-7.955,17.576-17.768
						c0-9.815-7.867-17.769-17.576-17.769C272.192,199.538,264.325,207.491,264.325,217.307z"/>
					<path fill="#F3E106" d="M275.081,217.307c0-3.809,3.053-6.893,6.816-6.893c3.768,0,6.816,3.084,6.816,6.893
						c0,3.806-3.048,6.891-6.816,6.891C278.134,224.198,275.081,221.112,275.081,217.307z"/>
					<path fill="#F3E106" d="M281.896,217.307c0,0,5.594,32.244-4.289,40.297l-13.282-6.498L281.896,217.307z"/>
					<ellipse fill="#FFEEA0" cx="38.74" cy="217.307" rx="17.574" ry="17.768"/>
					<ellipse fill="#B49612" cx="38.739" cy="217.307" rx="6.816" ry="6.893"/>
					<path fill="#B49612" d="M37.556,217.307c0,0-5.593,32.244,4.294,40.297l13.281-6.498L37.556,217.307z"/>
					<path fill="none" stroke="#C42C27" stroke-width="4" stroke-miterlimit="10" d="M241.16,84.186c0,0,25.299,8.007,36.447,27.589
						"/>
					<path fill="none" stroke="#B49612" stroke-width="4" stroke-miterlimit="10" d="M76.751,83.429c0,0-25.303,8.007-36.448,27.589
						"/>
					<path fill="#FFEEA0" d="M294.651,84.186H22.788c0,0,34.18-80.187,141.505-82.537C164.293,1.649,250.165,2.322,294.651,84.186z"
						/>
					<ellipse fill="#06AD79" cx="208.376" cy="48.514" rx="16.179" ry="25.136"/>
					<ellipse fill="#B49612" cx="110.128" cy="48.514" rx="16.179" ry="25.137"/>
					<ellipse fill="#C42C27" cx="208.375" cy="48.514" rx="8.09" ry="8.181"/>
					<ellipse fill="#F3E106" cx="110.127" cy="48.514" rx="8.091" ry="8.181"/>
					<path fill="#B49612" d="M199.231,10.959c0,0-11.108,53.99-40.269,61.044c0,0-33.176-13.676-37.417-62.281
						C121.545,9.722,160.35,0.426,199.231,10.959z"/>
					<path fill="#F3E106" d="M191.35,5.452c0,0-8.855,43.034-32.099,48.657c0,0-26.443-10.9-29.825-49.643
						C129.427,4.466,160.359-2.945,191.35,5.452z"/>
					<path fill="none" stroke="#FFEEA0" stroke-width="4" stroke-miterlimit="10" d="M173.639,27.778c0,0-11.065,10.45-26.563,0"/>
					<path fill="none" stroke="#FFEEA0" stroke-width="4" stroke-miterlimit="10" d="M173.639,18.732c0,0-11.065,10.451-26.563,0"/>
					<ellipse fill="#C54229" cx="238.944" cy="206.588" rx="14.558" ry="8.805"/>
					<ellipse fill="#B49612" cx="83.392" cy="206.588" rx="14.559" ry="8.805"/>
					<path fill="none" stroke="#0D1910" stroke-width="4" stroke-miterlimit="10" d="M70.259,152.291
						c19.244,21.3,51.63,23.006,72.406,3.816"/>
					<path fill="#B49612" d="M159.282,223.079H99.483c0,0-16.606-2.631-17.713,13.257v20.149c0,0-0.358,14.764,17.713,13.646h59.799
						"/>
					<path fill="#FFFFFF" stroke="#000000" stroke-width="2" stroke-miterlimit="10" d="M159.624,229.094h56.477
						c0,0,9.334,0,9.281,7.275v4.104H91.309v-4.104c-0.053-7.275,9.281-7.275,9.281-7.275h56.478"/>
					<path fill="#FFFFFF" stroke="#000000" stroke-width="2" stroke-miterlimit="10" d="M156.865,263.604h-56.478
						c0,0-9.334,0-9.28-7.275v-4.105h134.07v4.105c0.054,7.275-9.282,7.275-9.282,7.275h-56.474"/>
					
						<line fill="#FFFFFF" stroke="#000000" stroke-width="2" stroke-miterlimit="10" x1="175.323" y1="263.604" x2="145.454" y2="263.604"/>
					
						<line fill="none" stroke="#000000" stroke-width="2" stroke-miterlimit="10" x1="166.628" y1="229.094" x2="150.765" y2="229.094"/>
					
						<line fill="none" stroke="#000000" stroke-width="2" stroke-miterlimit="10" x1="159.282" y1="229.094" x2="159.282" y2="240.474"/>
					
						<line fill="none" stroke="#000000" stroke-width="2" stroke-miterlimit="10" x1="148.213" y1="229.094" x2="148.213" y2="240.474"/>
					
						<line fill="none" stroke="#000000" stroke-width="2" stroke-miterlimit="10" x1="137.145" y1="229.094" x2="137.145" y2="240.474"/>
					
						<line fill="none" stroke="#000000" stroke-width="2" stroke-miterlimit="10" x1="126.077" y1="229.094" x2="126.077" y2="240.474"/>
					
						<line fill="none" stroke="#000000" stroke-width="2" stroke-miterlimit="10" x1="115.008" y1="229.094" x2="115.008" y2="240.474"/>
					
						<line fill="none" stroke="#000000" stroke-width="2" stroke-miterlimit="10" x1="103.94" y1="229.094" x2="103.94" y2="240.474"/>
					
						<line fill="none" stroke="#000000" stroke-width="2" stroke-miterlimit="10" x1="170.351" y1="229.094" x2="170.351" y2="240.474"/>
					
						<line fill="none" stroke="#000000" stroke-width="2" stroke-miterlimit="10" x1="181.419" y1="229.094" x2="181.419" y2="240.474"/>
					
						<line fill="none" stroke="#000000" stroke-width="2" stroke-miterlimit="10" x1="192.487" y1="229.094" x2="192.487" y2="240.474"/>
					
						<line fill="none" stroke="#000000" stroke-width="2" stroke-miterlimit="10" x1="203.556" y1="229.094" x2="203.556" y2="240.474"/>
					
						<line fill="none" stroke="#000000" stroke-width="2" stroke-miterlimit="10" x1="214.624" y1="229.094" x2="214.624" y2="240.474"/>
					
						<line fill="none" stroke="#000000" stroke-width="2" stroke-miterlimit="10" x1="159.282" y1="252.224" x2="159.282" y2="263.601"/>
					
						<line fill="none" stroke="#000000" stroke-width="2" stroke-miterlimit="10" x1="148.213" y1="252.224" x2="148.213" y2="263.601"/>
					
						<line fill="none" stroke="#000000" stroke-width="2" stroke-miterlimit="10" x1="137.145" y1="252.224" x2="137.145" y2="263.601"/>
					
						<line fill="none" stroke="#000000" stroke-width="2" stroke-miterlimit="10" x1="126.077" y1="252.224" x2="126.077" y2="263.601"/>
					
						<line fill="none" stroke="#000000" stroke-width="2" stroke-miterlimit="10" x1="115.008" y1="252.224" x2="115.008" y2="263.601"/>
					
						<line fill="none" stroke="#000000" stroke-width="2" stroke-miterlimit="10" x1="103.94" y1="252.224" x2="103.94" y2="263.601"/>
					
						<line fill="none" stroke="#000000" stroke-width="2" stroke-miterlimit="10" x1="170.351" y1="252.224" x2="170.351" y2="263.601"/>
					
						<line fill="none" stroke="#000000" stroke-width="2" stroke-miterlimit="10" x1="181.419" y1="252.224" x2="181.419" y2="263.601"/>
					
						<line fill="none" stroke="#000000" stroke-width="2" stroke-miterlimit="10" x1="192.487" y1="252.224" x2="192.487" y2="263.601"/>
					
						<line fill="none" stroke="#000000" stroke-width="2" stroke-miterlimit="10" x1="203.556" y1="252.224" x2="203.556" y2="263.601"/>
					
						<line fill="none" stroke="#000000" stroke-width="2" stroke-miterlimit="10" x1="214.624" y1="252.224" x2="214.624" y2="263.601"/>
					<polygon fill="#FFEEA0" stroke="#000000" stroke-width="3" stroke-miterlimit="10" points="225.381,240.474 225.177,252.224 
						91.107,252.224 91.309,240.474 					"/>
					<path fill="none" stroke="#B49612" stroke-width="4" stroke-miterlimit="10" d="M224.555,283.561c0,0-64.196,40.288-133.448,0"
						/>
					<path fill="none" stroke="#F3E106" stroke-width="4" stroke-miterlimit="10" d="M251.421,189.976
						c0,0,39.207,56.659-24.823,108.138"/>
					<path fill="none" stroke="#FFEEA0" stroke-width="4" stroke-miterlimit="10" d="M70.429,191.096
						c0,0-39.207,56.658,24.82,108.137"/>
				</g>
			</g>
		</g>
	</g>
	<path opacity="0.25" fill="#6A5800" d="M205.286,14.546c0,0,8.791,171.409-191.918,190.454c0,0,27.717,110.962,146.443,111.885
		c0,0,137.661,0,154.017-143.81C313.828,173.076,319.936,41.265,205.286,14.546z"/>
</g>
</svg>
