<?xml version="1.0" encoding="utf-8"?>
<!-- Generator: Adobe Illustrator 16.0.0, SVG Export Plug-In . SVG Version: 6.00 Build 0)  -->
<!DOCTYPE svg PUBLIC "-//W3C//DTD SVG 1.1//EN" "http://www.w3.org/Graphics/SVG/1.1/DTD/svg11.dtd">
<svg version="1.1" id="Layer_1" xmlns="http://www.w3.org/2000/svg" xmlns:xlink="http://www.w3.org/1999/xlink" x="0px" y="0px"
	 width="234.417px" height="198.798px" viewBox="2.89 17.319 234.417 198.798" enable-background="new 2.89 17.319 234.417 198.798"
	 xml:space="preserve">
<g id="Layer_1_1_">
	<path fill="#FFFFFF" stroke="#000000" stroke-miterlimit="10" d="M87.306,82.029"/>
</g>
<g id="Layer_2">
</g>
<g id="Layer_3" display="none">
</g>
<g id="Layer_4" display="none">
</g>
<g id="Layer_5" display="none">
</g>
<g id="Layer_6">
	<g>
		<g>
			<g>
				<path d="M120.292,80.186c-0.9-10.057-2.813-19.999-3.812-30.048c-1.049-10.572-1.975-23.31,3.725-32.819
					c0.753-1.257-2.183-1.061-2.725-0.155c-5.226,8.721-4.883,19.718-4.249,29.518c0.742,11.505,3.136,22.812,4.162,34.282
					C117.492,82.05,120.4,81.395,120.292,80.186L120.292,80.186z"/>
			</g>
		</g>
		<path fill="#006838" stroke="#000000" stroke-miterlimit="10" d="M118.936,79.097c0,0,3.502-0.326,3.854-9.826
			c0.354-9.499,5.885-24.988,14.896-30.135c9.01-5.148,12.183-7.475,23.515-6.785s5.987,6.012,4.977,11.844
			c-1.014,5.832-1.094,5.164,2.115,4.671c3.209-0.493,17.043-1.298,24.703,2.051c7.659,3.35,17.305,13.203,23.623,21.216
			c6.315,8.013,16.969,15.535,19.799,16.375c2.832,0.839-2.002,1.163-2.002,1.163s-4.83-1.51-7.164-1.349
			c-2.334,0.162-17.174,2.964-36.181,5.925c-19.006,2.961-42.661-2.088-42.661-2.088s-6.33-1.68-0.671,1.999
			c5.658,3.678,17.806,13.705,20.599,32.877c2.793,19.172-1.527,12.997-1.527,12.997s-1.666-0.171-0.676,4.665
			s1.816,8.504-5.178,5.656c-6.994-2.849-3.853,8.492-3.853,8.492s-2.869,16.325-16.895,29.129
			c-14.027,12.805-12.06,28.143-12.06,28.143L118.936,79.097z"/>
		<path fill="#00AD79" stroke="#000000" stroke-miterlimit="10" d="M118.844,79.188c0,0-3.514,0.149-5.145-9.216
			c-1.63-9.365-9.199-23.966-18.824-27.852c-9.621-3.885-13.078-5.764-24.213-3.552c-11.135,2.213-5.121,6.766-3.333,12.407
			c1.79,5.642,1.778,4.97-1.468,4.915c-3.243-0.057-17.062,1.012-24.199,5.364c-7.139,4.352-15.368,15.417-20.545,24.208
			c-5.181,8.792-14.72,17.682-17.411,18.896c-2.692,1.213,2.142,0.882,2.142,0.882s4.582-2.147,6.916-2.302
			s17.416,0.621,36.648,0.991c19.23,0.37,41.988-7.823,41.988-7.823s6.048-2.518,0.938,1.89
			c-5.113,4.408-15.796,15.98-15.979,35.355c-0.182,19.373,3.266,12.672,3.266,12.672s1.629-0.395,1.301,4.531
			c-0.328,4.924-0.652,8.67,5.893,4.906c6.548-3.766,4.964,7.895,4.964,7.895s5.043,15.791,20.668,26.586
			c15.627,10.795,15.743,26.259,15.743,26.259L118.844,79.188z"/>
	</g>
</g>
</svg>
