<?xml version="1.0" encoding="utf-8"?>
<!-- Generator: Adobe Illustrator 16.0.0, SVG Export Plug-In . SVG Version: 6.00 Build 0)  -->
<!DOCTYPE svg PUBLIC "-//W3C//DTD SVG 1.1//EN" "http://www.w3.org/Graphics/SVG/1.1/DTD/svg11.dtd">
<svg version="1.1" id="Layer_1" xmlns="http://www.w3.org/2000/svg" xmlns:xlink="http://www.w3.org/1999/xlink" x="0px" y="0px"
	 width="192.579px" height="195.423px" viewBox="19.599 14.8 192.579 195.423" enable-background="new 19.599 14.8 192.579 195.423"
	 xml:space="preserve">
<g id="Layer_1_1_">
	<path fill="#FFFFFF" stroke="#000000" stroke-miterlimit="10" d="M87.306,82.029"/>
</g>
<g id="Layer_2">
	<g>
		<g>
			<path fill="#006838" d="M138.068,168.104c6.611,7.847-17.229,11.403-16.162,1.607c-3.613-1.32-0.69-14.529-0.858-19.136
				c-0.085-3.772,0.278-6.839,3.155-9.138c6.999-5.588,13.913,5.764,9.888,6.164"/>
		</g>
		<g>
			<g>
				<path fill="#006838" stroke="#000000" stroke-miterlimit="10" d="M101.021,21.43c0,0,1.4,25.345,3.839,40.272
					c2.444,14.928,10.055,50.354,10.055,50.354s4.217,25.583,12.078,22C120.403,105.476,101.021,21.43,101.021,21.43z"/>
				<path fill="#00AD79" stroke="#000000" stroke-miterlimit="10" d="M101.021,21.43c0,0,9.849,23.395,14.187,37.888
					c4.34,14.49,13.01,49.672,13.01,49.672s7.41,24.849-1.226,25.068C120.403,105.476,101.021,21.43,101.021,21.43z"/>
			</g>
			<g>
				<path fill="#006838" stroke="#000000" stroke-miterlimit="10" d="M128.891,14.8c0,0-4.291,25.019-5.24,40.115
					c-0.951,15.096-1.435,51.328-1.435,51.328s-1.594,25.88,6.869,24.14C129.035,101.053,128.891,14.8,128.891,14.8z"/>
				<path fill="#00AD79" stroke="#000000" stroke-miterlimit="10" d="M128.891,14.8c0,0,4.38,25.002,5.377,40.098
					c0.998,15.094,1.601,51.322,1.601,51.322s1.682,25.877-6.784,24.163C129.035,101.053,128.891,14.8,128.891,14.8z"/>
			</g>
			<g>
				<path fill="#006838" stroke="#000000" stroke-miterlimit="10" d="M54.539,42.719c0,0,12.769,23.065,21.664,36.075
					c8.892,13.005,31.528,43.229,31.528,43.229s15.269,22.281,20.286,16.147C109.373,113.951,54.539,42.719,54.539,42.719z"/>
				<path fill="#00AD79" stroke="#000000" stroke-miterlimit="10" d="M54.539,42.719c0,0,19.034,18.242,29.334,30.171
					c10.3,11.924,33.722,41.54,33.722,41.54s17.636,20.462,10.423,23.741C109.373,113.951,54.539,42.719,54.539,42.719z"/>
			</g>
			<g>
				<g>
					<path d="M126.792,142.92c0.052,22.641,2.9,47.98-12.017,66.833c-0.646,0.815,2.182,0.44,2.645-0.146
						c7.465-9.435,10.081-18.946,11.429-30.76c1.4-12.271,0.87-24.388,0.841-36.705C129.689,141.551,126.79,142.007,126.792,142.92
						L126.792,142.92z"/>
				</g>
			</g>
			<g>
				<path fill="#006838" stroke="#000000" stroke-miterlimit="10" d="M31.22,71.634c0,0,18.379,19.021,30.48,29.131
					c12.096,10.104,42.229,32.865,42.229,32.865s20.76,17.295,24.489,9.161C103.754,124.734,31.22,71.634,31.22,71.634z"/>
				<path fill="#00AD79" stroke="#000000" stroke-miterlimit="10" d="M31.22,71.634c0,0,23.688,11.771,36.979,20.253
					c13.289,8.479,44.087,30.326,44.087,30.326s22.767,14.563,16.133,20.578C103.754,124.734,31.22,71.634,31.22,71.634z"/>
			</g>
			<g>
				<path fill="#006838" stroke="#000000" stroke-miterlimit="10" d="M19.599,92.466c0,0,20.965,16.125,34.416,24.353
					c13.444,8.229,46.584,26.334,46.584,26.334s23.068,14.07,25.566,5.475C99.124,134.375,19.599,92.466,19.599,92.466z"/>
				<path fill="#00AD79" stroke="#000000" stroke-miterlimit="10" d="M19.599,92.466c0,0,25.153,8.178,39.544,14.621
					c14.387,6.441,48.052,23.549,48.052,23.549s24.652,11.069,18.971,17.99C99.124,134.375,19.599,92.466,19.599,92.466z"/>
			</g>
			<g>
				<path fill="#006838" stroke="#000000" stroke-miterlimit="10" d="M170.03,22.731c0,0-11.875,22.433-17.484,36.479
					c-5.608,14.051-17.368,48.324-17.368,48.324s-9.582,24.092-1,25.075C143.276,104.73,170.03,22.731,170.03,22.731z"/>
				<path fill="#00AD79" stroke="#000000" stroke-miterlimit="10" d="M170.03,22.731c0,0-3.631,25.122-7.392,39.774
					c-3.757,14.654-14.479,49.264-14.479,49.264s-6.473,25.11-13.982,20.842C143.276,104.73,170.03,22.731,170.03,22.731z"/>
			</g>
			<g>
				<path fill="#006838" stroke="#000000" stroke-miterlimit="10" d="M194.887,47.757c0,0-17.588,18.305-26.842,30.27
					c-9.256,11.966-29.981,41.686-29.981,41.686s-15.841,20.529-7.858,23.838C146.618,119.241,194.887,47.757,194.887,47.757z"/>
				<path fill="#00AD79" stroke="#000000" stroke-miterlimit="10" d="M194.887,47.757c0,0-10.399,23.158-18.043,36.212
					c-7.642,13.056-27.468,43.383-27.468,43.383s-13.123,22.364-19.171,16.198C146.618,119.241,194.887,47.757,194.887,47.757z"/>
			</g>
			<g>
				<path fill="#006838" stroke="#000000" stroke-miterlimit="10" d="M212.178,81.326c0,0-20.15,12.94-31.4,21.783
					c-11.248,8.84-37.253,31.19-37.253,31.19s-19.266,15.18-13.34,19.422C150.988,135.35,212.178,81.326,212.178,81.326z"/>
				<path fill="#00AD79" stroke="#000000" stroke-miterlimit="10" d="M212.178,81.326c0,0-15.334,18.395-25.505,28.461
					c-10.167,10.066-35.566,33.098-35.566,33.098s-17.452,17.238-20.923,10.836C150.988,135.35,212.178,81.326,212.178,81.326z"/>
			</g>
			<g>
				<path fill="#006838" stroke="#000000" stroke-miterlimit="10" d="M55.915,171.629c0,0,15.479,4.237,24.82,5.189
					c9.342,0.949,31.76,1.482,31.76,1.482s16.012,1.6,14.944-6.673C109.292,171.629,55.915,171.629,55.915,171.629z"/>
				<path fill="#00AD79" stroke="#000000" stroke-miterlimit="10" d="M55.915,171.629c0,0,15.479-4.238,24.82-5.186
					c9.342-0.953,31.76-1.485,31.76-1.485s16.012-1.601,14.944,6.671C109.292,171.629,55.915,171.629,55.915,171.629z"/>
			</g>
			<g>
				<path fill="#006838" stroke="#000000" stroke-miterlimit="10" d="M193.071,130.795c0,0-15.629,3.645-24.296,7.257
					c-8.669,3.614-28.635,13.823-28.635,13.823s-14.84,6.221-9.964,12.984C146.132,156.214,193.071,130.795,193.071,130.795z"/>
				<path fill="#00AD79" stroke="#000000" stroke-miterlimit="10" d="M193.071,130.795c0,0-11.593,11.102-19.355,16.381
					c-7.76,5.285-27.219,16.434-27.219,16.434s-13.32,9.033-16.32,1.252C146.132,156.214,193.071,130.795,193.071,130.795z"/>
			</g>
			<g>
				<path fill="#006838" stroke="#000000" stroke-miterlimit="10" d="M191.639,182.736c0,0-12.915-5.713-20.917-7.76
					c-9.655-2.472-8.335-2.107-27.443-5.447c0,0-13.729-3.483-13.879,3.854C145.134,175.743,144.756,175.689,191.639,182.736z"/>
				<path fill="#00AD79" stroke="#000000" stroke-miterlimit="10" d="M191.639,182.736c0,0-14.024,1.666-22.273,1.271
					c-8.195-0.39-8.155-0.384-27.833-2.86c0,0-14.142-0.701-12.133-7.763C145.134,175.743,144.756,175.689,191.639,182.736z"/>
			</g>
			<g>
				<path fill="#006838" stroke="#000000" stroke-miterlimit="10" d="M42.505,135.605c0,0,17.078,9.553,27.855,13.686
					c10.775,4.129,37.147,12.257,37.147,12.257s18.479,7.048,19.627-1.745C105.661,153.661,42.505,135.605,42.505,135.605z"/>
				<path fill="#00AD79" stroke="#000000" stroke-miterlimit="10" d="M42.505,135.605c0,0,19.549,0.914,30.878,3.106
					c11.332,2.19,38.013,9.231,38.013,9.231s19.414,3.787,15.739,11.857C105.661,153.661,42.505,135.605,42.505,135.605z"/>
			</g>
		</g>
	</g>
</g>
<g id="Layer_3" display="none">
</g>
<g id="Layer_4" display="none">
</g>
<g id="Layer_5" display="none">
</g>
<g id="Layer_6">
</g>
</svg>
