<?xml version="1.0" encoding="utf-8"?>
<!-- Generator: Adobe Illustrator 16.0.0, SVG Export Plug-In . SVG Version: 6.00 Build 0)  -->
<!DOCTYPE svg PUBLIC "-//W3C//DTD SVG 1.1//EN" "http://www.w3.org/Graphics/SVG/1.1/DTD/svg11.dtd">
<svg version="1.1" id="Layer_1" xmlns="http://www.w3.org/2000/svg" xmlns:xlink="http://www.w3.org/1999/xlink" x="0px" y="0px"
	 width="134.908px" height="210.261px" viewBox="52.496 9.796 134.908 210.261"
	 enable-background="new 52.496 9.796 134.908 210.261" xml:space="preserve">
<g id="Layer_1_1_">
	<path fill="#FFFFFF" stroke="#000000" stroke-miterlimit="10" d="M87.306,82.029"/>
	<g>
		<g>
			<g>
				<path d="M71.593,193.627c-4.811,9.65-9.746,19.395-18.776,25.768c-1.279,0.903,1.644,0.754,2.277,0.308
					c9.296-6.562,14.426-16.562,19.38-26.5C74.813,192.52,72.009,192.793,71.593,193.627L71.593,193.627z"/>
			</g>
		</g>
		<g>
			<g>
				<path id="SVGID_1_" fill="#00AD79" d="M69.843,193.357c-13.092-16.736-11.825-64.967-4.41-82.527
					c11.964,12.759,11.964,12.759,11.964,12.759l-7.25-20.251c0,0,2.208-20.837,13.188-29.617
					C96.6,87.302,100.506,89.76,100.506,89.76l-9.108-24.037c0,0-7.734-5.521,17.881-26.007
					c8.429,18.378,11.394,20.897,11.394,20.897l-0.35-28.328c0,0,30.655-25.152,55.489-21.29L73.425,195.613
					C73.425,195.613,73.425,195.613,69.843,193.357z"/>
			</g>
			<g>
				<path id="SVGID_2_" fill="none" stroke="#000000" stroke-miterlimit="10" d="M69.843,193.357
					c-13.092-16.736-11.825-64.967-4.41-82.527c11.964,12.759,11.964,12.759,11.964,12.759l-7.25-20.251
					c0,0,2.208-20.837,13.188-29.617C96.6,87.302,100.506,89.76,100.506,89.76l-9.108-24.037c0,0-7.734-5.521,17.881-26.007
					c8.429,18.378,11.394,20.897,11.394,20.897l-0.35-28.328c0,0,30.655-25.152,55.489-21.29L73.425,195.613
					C73.425,195.613,73.425,195.613,69.843,193.357z"/>
			</g>
		</g>
		<g>
			<g>
				<g>
					<defs>
						<path id="SVGID_4_" d="M75.75,196.805c20.759,3.266,60.882-22.23,71.977-37.742c-16.827-4.267-16.827-4.267-16.827-4.267
							l20.775-3.739c0,0,16.495-12.504,18.369-26.769c-18.178-5.019-22.229-7.274-22.229-7.274l24.915-3.987
							c0,0,8.574,4.136,12.945-29.15c-19.789,1.738-23.417,0.357-23.417,0.357l24.118-14c0,0,5.771-40.154-10.04-60.438
							L72.033,194.734C72.033,194.734,72.033,194.734,75.75,196.805z"/>
					</defs>
					<clipPath id="SVGID_5_">
						<use xlink:href="#SVGID_4_"  overflow="visible"/>
					</clipPath>
					<polygon clip-path="url(#SVGID_5_)" fill="#006838" stroke="#000000" stroke-miterlimit="10" points="130.23,242.439 
						37.061,190.561 138.277,-14.609 231.446,37.271 					"/>
				</g>
			</g>
			<g>
				<path id="SVGID_3_" fill="none" stroke="#000000" stroke-miterlimit="10" d="M75.75,196.805
					c20.759,3.266,60.882-22.23,71.977-37.742c-16.827-4.267-16.827-4.267-16.827-4.267l20.775-3.739
					c0,0,16.495-12.504,18.369-26.769c-18.178-5.019-22.229-7.274-22.229-7.274l24.915-3.987c0,0,8.574,4.136,12.945-29.15
					c-19.789,1.738-23.417,0.357-23.417,0.357l24.118-14c0,0,5.771-40.154-10.04-60.438L72.033,194.734
					C72.033,194.734,72.033,194.734,75.75,196.805z"/>
			</g>
		</g>
	</g>
</g>
</svg>
