<?xml version="1.0" encoding="utf-8"?>
<!-- Generator: Adobe Illustrator 17.0.0, SVG Export Plug-In . SVG Version: 6.00 Build 0)  -->
<!DOCTYPE svg PUBLIC "-//W3C//DTD SVG 1.1//EN" "http://www.w3.org/Graphics/SVG/1.1/DTD/svg11.dtd">
<svg version="1.1" id="Laag_1" xmlns="http://www.w3.org/2000/svg" xmlns:xlink="http://www.w3.org/1999/xlink" x="0px" y="0px"
	 width="100px" height="100px" viewBox="0 0 100 100" enable-background="new 0 0 100 100" xml:space="preserve">
<g>
	<g>
		<path fill="#FFFFFF" d="M34.423,1c10.04,0,20.08,0,30.118,0c3.167,6.959,0.696,22.092,3.013,32.754
			c0.75,3.449,4.47,8.17,6.777,12.424c4.838,8.924,8.703,15.918,13.553,24.848c2.309,4.251,5.58,9.077,6.024,13.178
			C95.524,99.151,81.691,97.38,67.931,97.38c-12.608,0-24.598,0-36.896,0c-6.286,0-13.911,0.958-18.447-0.376
			c-3.878-1.141-7.091-5.918-7.53-8.659c-1.117-6.971,3.353-12.397,6.024-17.316c4.89-9.007,9.168-16.304,13.93-25.226
			c2.431-4.558,6.079-9.286,6.777-13.176C33.389,23.696,31.953,5.86,34.423,1z M38.188,40.53c0.314,5.614,7.99,4.219,7.906-0.376
			c-0.043-2.421-1.689-4.604-5.271-3.389C38.833,37.441,38.116,39.238,38.188,40.53z M35.553,57.096
			c0.12,12.105,17.797,4.896,12.048-3.765c-0.435-0.652-2.295-3.428-7.154-2.26C37.118,51.872,35.527,54.478,35.553,57.096z
			 M49.859,64.249c-0.865,7.199,9.248,5.242,7.528-0.752c-0.338-1.183-1.697-2.61-4.142-2.26
			C50.737,61.597,50.019,62.923,49.859,64.249z M18.235,83.451c0.963,4.167,8.941,3.387,13.931,3.387c6.558,0,12.33,0,17.318,0
			c7.862,0,29.908,2.404,31.248-3.387c0.742-3.207-4.896-13.751-8.282-14.309c-4.514-0.738-7.854,3.887-13.555,4.519
			c-1.876,0.209-4.324,0.262-6.399,0c-8.428-1.066-17.526-9.693-24.846-7.153C25.071,67.402,17.429,79.965,18.235,83.451z"/>
		<path fill="#56C8E6" d="M40.823,36.765c3.581-1.214,5.227,0.968,5.27,3.39c0.084,4.595-7.592,5.99-7.906,0.376
			C38.116,39.238,38.833,37.441,40.823,36.765z"/>
		<path fill="#56C8E6" d="M40.447,51.072c4.859-1.168,6.72,1.607,7.154,2.259c5.749,8.662-11.929,15.87-12.048,3.766
			C35.527,54.478,37.118,51.872,40.447,51.072z"/>
		<path fill="#56C8E6" d="M53.246,61.237c2.444-0.351,3.804,1.077,4.142,2.26c1.72,5.994-8.394,7.951-7.528,0.752
			C50.019,62.923,50.737,61.597,53.246,61.237z"/>
		<path fill="#56C8E6" d="M27.647,66.508c7.322-2.54,16.418,6.087,24.846,7.153c2.075,0.262,4.523,0.209,6.399,0
			c5.7-0.632,9.042-5.257,13.555-4.519c3.387,0.558,9.024,11.102,8.282,14.309c-1.34,5.793-23.386,3.387-31.248,3.387
			c-4.988,0-10.76,0-17.317,0c-4.989,0-12.967,0.78-13.931-3.387C17.429,79.965,25.071,67.402,27.647,66.508z"/>
	</g>
</g>
</svg>
