<?xml version="1.0" encoding="utf-8"?>
<!-- Generator: Adobe Illustrator 17.0.0, SVG Export Plug-In . SVG Version: 6.00 Build 0)  -->
<!DOCTYPE svg PUBLIC "-//W3C//DTD SVG 1.1//EN" "http://www.w3.org/Graphics/SVG/1.1/DTD/svg11.dtd">
<svg version="1.1" id="Laag_1" xmlns="http://www.w3.org/2000/svg" xmlns:xlink="http://www.w3.org/1999/xlink" x="0px" y="0px"
	 width="366.598px" height="360.092px" viewBox="0 0 366.598 360.092" enable-background="new 0 0 366.598 360.092"
	 xml:space="preserve">
<g>
	<path fill="#0BD18F" d="M24.02,180.172C24.02,269.659,96,342.208,186,342.275V18.07C96,18.137,24.02,90.686,24.02,180.172z"/>
	<path fill="#06AD79" d="M348.316,180.172c0-89.528-72.62-162.104-162.148-162.104c-0.041,0-0.168,0.002-0.168,0.002v324.205
		c0,0,0.126,0.002,0.168,0.002C275.695,342.276,348.316,269.7,348.316,180.172z"/>
</g>
<circle fill="#FFFFFF" cx="186.072" cy="180.086" r="41.749"/>
<g>
	<path fill="#FFFFFF" d="M120.391,208.598c-14.363-33.086-1.822-71.052,28.069-89.423l-20.801-47.917
		c-56.165,30.033-80.701,98.598-54.906,158.02c8.607,19.827,21.807,36.242,37.794,48.568l27.796-44.381
		C130.854,226.78,124.651,218.411,120.391,208.598z"/>
</g>
<g>
	<path fill="#FFFFFF" d="M214.573,245.742c-19.714,8.558-41.167,7.537-59.173-0.996l-28.768,43.597
		c0.754,0.413,1.512,0.814,2.271,1.21c0.13,0.068,0.259,0.139,0.39,0.207c0.58,0.3,1.163,0.587,1.745,0.877
		c0.385,0.191,0.769,0.385,1.156,0.573c0.534,0.259,1.07,0.51,1.606,0.76c0.437,0.204,0.874,0.407,1.314,0.606
		c0.528,0.239,1.056,0.473,1.586,0.704c0.438,0.191,0.878,0.378,1.318,0.564c0.551,0.233,1.103,0.465,1.656,0.689
		c0.37,0.15,0.743,0.294,1.114,0.441c53.159,20.925,115.494,2.631,148.215-46.957c8.297-12.574,13.985-26.109,17.213-39.969
		l-50.896-9.898C249.95,218.683,235.552,236.635,214.573,245.742z"/>
	<path fill="#FFFFFF" d="M298.815,131.143C273.02,71.722,206.08,42.867,145.786,63.389l20.801,47.917
		c33.832-9.292,70.227,7.431,84.59,40.517c3.844,8.854,5.757,18.055,5.928,27.14l51.672,10.046
		C310.146,169.811,307.011,150.023,298.815,131.143z"/>
</g>
</svg>
