<?xml version="1.0" encoding="utf-8"?>
<!-- Generator: Adobe Illustrator 15.1.0, SVG Export Plug-In . SVG Version: 6.00 Build 0)  -->
<!DOCTYPE svg PUBLIC "-//W3C//DTD SVG 1.1//EN" "http://www.w3.org/Graphics/SVG/1.1/DTD/svg11.dtd">
<svg version="1.1" id="Layer_1" xmlns="http://www.w3.org/2000/svg" xmlns:xlink="http://www.w3.org/1999/xlink" x="0px" y="0px"
	 width="64px" height="63.876px" viewBox="0 0 64 63.876" enable-background="new 0 0 64 63.876" xml:space="preserve">
<path fill="none" stroke="#FFFFFF" stroke-width="2" stroke-miterlimit="10" d="M74.873,420.945
	c0.797-3.504,2.075-7.68,1.159-11.211"/>
<g>
	<path fill="#0BD18F" d="M60.228,31.705c0-15.56-12.613-28.173-28.174-28.173S3.88,16.145,3.88,31.705
		c0,15.561,12.613,28.174,28.174,28.174S60.228,47.266,60.228,31.705"/>
	<path fill="#06AD79" d="M60.228,31.782c0-15.515-12.794-28.093-28.575-28.093v56.186C47.434,59.875,60.228,47.298,60.228,31.782"/>
	<path fill="#FFFFFF" d="M51.116,52.367c0,0-9.465-21.159-17.539-25.335c0,0,5.289-1.392,10.857,4.176l1.392-0.557l-0.834-2.227
		l3.154-1.546v-1.517h2.97l-2.97-2.505l-2.876-1.671l-2.925,2.228l-0.973-2.228H43.6l-2.506-1.949c-0.277-1.67-3.062,0-3.062,0
		l-2.229,2.506l-0.834,0.835l-1.393,1.392l-1.392-0.278l1.948-3.063l1.949-2.134l0.556-2.599h-2.782l-1.671-4.455
		c-0.835,2.228-3.063,1.949-3.063,1.949c-0.557,2.506-2.226,2.227-2.226,2.227l2.782,6.125l-0.277,1.949l-2.505-1.67l-1.948-5.011
		c-2.229-0.557-4.734-0.835-4.734-0.835l-4.177,0.278l-2.506,2.227l2.506,0.834c2.784,0.836,3.619,2.785,3.619,2.785l2.228-1.114
		l0.836,1.949h2.783l1.671,1.393l-1.671,1.113l-3.619,0.278l-3.341,0.279c-3.063,0.278-5.012,1.114-5.012,1.114v1.392
		c-1.391,2.784-2.228,3.202-2.228,3.202c-0.556,1.531,3.063,1.81,3.063,1.81c2.228,0.278,4.176,1.113,4.176,1.113l0.835,1.95
		l3.063,0.835l2.227,0.278c-0.277-3.341,1.393-5.985,1.393-5.985c0.277-1.81,1.671-2.924,1.671-2.924
		c1.671-1.392,0.278,2.924,0.278,2.924l0.279,4.593c1.948,1.392,2.894,3.341,2.894,3.341c1.282,2.505,1.84,4.733,1.84,4.733
		l2.504-1.949l1.113-2.228l1.671,1.949c2.227-1.671,0.279-4.455,0.279-4.455c-2.229-3.063-3.342-5.985-3.342-5.985l-1.113-1.81
		c0,0,8.631,6.96,15.313,22.272l1.67,2.228h1.671L51.116,52.367z"/>
</g>
<g>
	<defs>
		<rect id="SVGID_1_" x="-3.237" y="1" width="35.615" height="60.217"/>
	</defs>
	<clipPath id="SVGID_2_">
		<use xlink:href="#SVGID_1_"  overflow="visible"/>
	</clipPath>
	<g clip-path="url(#SVGID_2_)">
		<path fill="#0BD18F" d="M59.455,31.166c0-14.92-12.095-27.016-27.016-27.016c-14.92,0-27.016,12.096-27.016,27.016
			c0,14.921,12.095,27.016,27.016,27.016C47.359,58.182,59.455,46.087,59.455,31.166"/>
		<path fill="#06AD79" d="M59.594,31.166c0-14.923-12.305-27.02-27.483-27.02v54.04C47.289,58.186,59.594,46.089,59.594,31.166"/>
		<path fill="none" stroke="#FFFFFF" stroke-width="2" stroke-miterlimit="10" d="M32.889,59.968
			c1.416-5.65,3.713-9.973,8.172-13.777"/>
		<path fill="none" stroke="#FFFFFF" stroke-width="2" stroke-miterlimit="10" d="M45.852,22.08
			c-5.336,5.466-4.73,16.317-5.354,23.537"/>
		<path fill="none" stroke="#FFFFFF" stroke-width="2" stroke-miterlimit="10" d="M50.925,35.858
			c-1.207,4.116-6.833,7.739-10.709,10.333"/>
		<path fill="none" stroke="#FFFFFF" stroke-width="2" stroke-miterlimit="10" d="M40.216,45.617
			c1.969-3.529,4.928-8.021,5.073-12.056"/>
		<path fill="none" stroke="#FFFFFF" stroke-width="2" stroke-miterlimit="10" d="M18.234,39.876
			c5.07,0.113,8.702,1.496,10.787,6.299c1.591,3.669,3.152,7.937,3.022,12.071"/>
		<path fill="none" stroke="#FFFFFF" stroke-width="2" stroke-miterlimit="10" d="M17.389,30.978
			c3.676,2.438,10.958,7.813,11.272,12.917"/>
		<path fill="none" stroke="#FFFFFF" stroke-width="2" stroke-miterlimit="10" d="M28.662,28.108c0,5.864-0.503,12.531,1.127,18.083
			"/>
		<path fill="none" stroke="#FFFFFF" stroke-width="2" stroke-miterlimit="10" d="M33.171,56.812c0-5.291-1.733-14.63,0.563-18.944"
			/>
		<path fill="none" stroke="#FFFFFF" stroke-width="2" stroke-miterlimit="10" d="M20.771,26.673c4.051,3.8,6.795,8.077,6.2,13.49"
			/>
		<path fill="none" stroke="#FFFFFF" stroke-width="2" stroke-miterlimit="10" d="M21.052,14.617
			c2.437,5.366,3.747,10.671,3.664,16.361"/>
		<path fill="none" stroke="#FFFFFF" stroke-width="2" stroke-miterlimit="10" d="M27.535,12.895c-1.532,4.438-2.258,8-2.255,12.63"
			/>
		<path fill="none" stroke="#FFFFFF" stroke-width="2" stroke-miterlimit="10" d="M34.58,12.608c-2.852,3.002-6.01,6.045-7.89,9.814
			c-1.361,2.727-0.644,6.186-1.692,8.556"/>
		<path fill="none" stroke="#FFFFFF" stroke-width="2" stroke-miterlimit="10" d="M34.298,23.228
			c-2.563,6.651-3.351,11.584-2.818,18.657"/>
		<path fill="none" stroke="#FFFFFF" stroke-width="2" stroke-miterlimit="10" d="M31.479,20.645
			c0.21,1.861,0.213,3.707,0.564,5.453"/>
		<path fill="none" stroke="#FFFFFF" stroke-width="2" stroke-miterlimit="10" d="M38.807,29.83
			c1.084,3.594,1.686,9.125,1.409,12.917"/>
		<path fill="#FFFFFF" d="M18.516,39.876c0-1.427-1.135-2.584-2.536-2.584s-2.536,1.157-2.536,2.584
			c0,1.426,1.135,2.583,2.536,2.583S18.516,41.303,18.516,39.876"/>
		<path fill="#FFFFFF" d="M17.107,29.83c0-1.427-1.135-2.583-2.536-2.583c-1.401,0-2.537,1.157-2.537,2.583
			c0,1.427,1.136,2.583,2.537,2.583C15.972,32.414,17.107,31.257,17.107,29.83"/>
		<path fill="#FFFFFF" d="M21.052,24.376c0,1.427-1.135,2.583-2.536,2.583c-1.401,0-2.536-1.157-2.536-2.583
			c0-1.427,1.135-2.583,2.536-2.583C19.917,21.793,21.052,22.949,21.052,24.376"/>
		<path fill="#FFFFFF" d="M23.025,12.895c0,1.268-1.009,2.296-2.254,2.296c-1.245,0-2.254-1.028-2.254-2.296s1.01-2.296,2.254-2.296
			C22.016,10.598,23.025,11.626,23.025,12.895"/>
		<path fill="#FFFFFF" d="M29.789,10.598c0,1.269-1.01,2.296-2.254,2.296c-1.245,0-2.255-1.028-2.255-2.296
			c0-1.268,1.01-2.296,2.255-2.296C28.779,8.302,29.789,9.331,29.789,10.598"/>
		<path fill="#FFFFFF" d="M38.418,10.598c0,1.445-1.151,2.618-2.57,2.618c-1.419,0-2.57-1.173-2.57-2.618
			c0-1.445,1.15-2.617,2.57-2.617C37.267,7.981,38.418,9.153,38.418,10.598"/>
		<path fill="#FFFFFF" d="M30.775,25.524c0-1.189-0.946-2.152-2.113-2.152c-1.168,0-2.114,0.963-2.114,2.152
			s0.946,2.153,2.114,2.153C29.829,27.678,30.775,26.713,30.775,25.524"/>
		<path fill="#FFFFFF" d="M35.143,18.635c0,1.446-1.15,2.616-2.568,2.616s-2.568-1.17-2.568-2.616c0-1.444,1.15-2.615,2.568-2.615
			S35.143,17.191,35.143,18.635"/>
		<ellipse fill="none" stroke="#FFFFFF" stroke-width="2" stroke-miterlimit="10" cx="32.575" cy="18.635" rx="2.568" ry="2.616"/>
		<path fill="#FFFFFF" d="M37.679,35.858c0-1.427-1.135-2.584-2.536-2.584c-1.401,0-2.537,1.157-2.537,2.584
			s1.136,2.583,2.537,2.583C36.544,38.441,37.679,37.285,37.679,35.858"/>
		<path fill="#FFFFFF" d="M41.343,27.247c0-1.427-1.136-2.584-2.537-2.584s-2.536,1.157-2.536,2.584s1.135,2.584,2.536,2.584
			S41.343,28.674,41.343,27.247"/>
		<path fill="#FFFFFF" d="M38.807,22.08c0-1.427-1.135-2.583-2.536-2.583c-1.401,0-2.537,1.157-2.537,2.583
			c0,1.427,1.135,2.583,2.537,2.583C37.671,24.663,38.807,23.507,38.807,22.08"/>
		<path fill="#FFFFFF" d="M50.36,20.645c0-1.427-1.134-2.584-2.535-2.584c-1.402,0-2.537,1.157-2.537,2.584
			c0,1.427,1.135,2.583,2.537,2.583C49.226,23.228,50.36,22.072,50.36,20.645"/>
		<path fill="#FFFFFF" d="M48.388,30.978c0-1.427-1.135-2.583-2.536-2.583s-2.536,1.156-2.536,2.583
			c0,1.427,1.135,2.584,2.536,2.584S48.388,32.405,48.388,30.978"/>
		<path fill="#FFFFFF" d="M54.87,33.849c0-1.427-1.136-2.583-2.537-2.583c-1.4,0-2.536,1.157-2.536,2.583s1.136,2.583,2.536,2.583
			C53.734,36.432,54.87,35.275,54.87,33.849"/>
		<path fill="none" stroke="#FFFFFF" stroke-width="2" stroke-miterlimit="10" d="M19.502,25.381
			c-0.238-0.251,1.306,1.378,1.537,1.64c0.121,0.095,0.341,0.431,0.295,0.37"/>
		<path fill="none" stroke="#FFFFFF" stroke-width="2" stroke-miterlimit="10" d="M17.812,31.409
			c-0.657-0.38-2.423-1.234-2.818-1.722"/>
		<path fill="none" stroke="#FFFFFF" stroke-width="2" stroke-miterlimit="10" d="M29.366,45.187c0.396,1.239,0.69,2.26,0.845,3.444
			"/>
		<path fill="none" stroke="#FFFFFF" stroke-width="2" stroke-miterlimit="10" d="M31.198,40.737c0.454,1.489,0.71,2.712,1.55,3.875
			"/>
		<path fill="none" stroke="#FFFFFF" stroke-width="2" stroke-miterlimit="10" d="M40.075,47.339
			c0.145-2.084-0.141-3.422-0.141-5.311"/>
		<path fill="none" stroke="#FFFFFF" stroke-width="2" stroke-miterlimit="10" d="M39.793,47.339
			c0.956-0.752,1.937-1.424,2.536-2.44"/>
		<path fill="none" stroke="#FFFFFF" stroke-width="2" stroke-miterlimit="10" d="M37.961,28.826
			c0.324,0.753,0.566,1.435,0.986,2.009"/>
		<path fill="none" stroke="#FFFFFF" stroke-width="2" stroke-miterlimit="10" d="M45.429,32.413
			c-0.135,0.665-0.229,1.334-0.282,2.01"/>
		<path fill="none" stroke="#FFFFFF" stroke-width="2" stroke-miterlimit="10" d="M32.606,28.251
			c-0.365-1.09-0.886-2.268-0.845-3.445"/>
		<path fill="none" stroke="#FFFFFF" stroke-width="2" stroke-miterlimit="10" d="M28.521,26.385
			c0.001,0.948-0.012,1.619,0.141,2.44"/>
		<path fill="none" stroke="#FFFFFF" stroke-width="2" stroke-miterlimit="10" d="M25.139,28.826
			c0.003-1.163,0.154-2.704-0.142-3.875"/>
		<path fill="none" stroke="#FFFFFF" stroke-width="2" stroke-miterlimit="10" d="M27.675,11.89
			c-0.042,0.658-0.174,1.361-0.282,2.009"/>
		<path fill="none" stroke="#FFFFFF" stroke-width="2" stroke-miterlimit="10" d="M32.043,61.26
			c0.387-1.704,1.009-3.736,0.563-5.453"/>
	</g>
</g>
</svg>
