<?xml version="1.0" encoding="utf-8"?>
<!-- Generator: Adobe Illustrator 15.1.0, SVG Export Plug-In . SVG Version: 6.00 Build 0)  -->
<!DOCTYPE svg PUBLIC "-//W3C//DTD SVG 1.1//EN" "http://www.w3.org/Graphics/SVG/1.1/DTD/svg11.dtd">
<svg version="1.1" id="Layer_1" xmlns="http://www.w3.org/2000/svg" xmlns:xlink="http://www.w3.org/1999/xlink" x="0px" y="0px"
	 width="64px" height="63.876px" viewBox="0 0 64 63.876" enable-background="new 0 0 64 63.876" xml:space="preserve">
<path fill="none" stroke="#FFFFFF" stroke-width="2" stroke-miterlimit="10" d="M74.873,420.945
	c0.797-3.504,2.075-7.68,1.159-11.211"/>
<g>
	<path fill="#0BD18F" d="M59.96,31.938c0-15.781-12.793-28.575-28.575-28.575C15.603,3.363,2.81,16.156,2.81,31.938
		c0,15.782,12.793,28.576,28.575,28.576C47.167,60.513,59.96,47.72,59.96,31.938"/>
	<path fill="#06AD79" d="M59.96,31.938c0-15.781-12.793-28.575-28.575-28.575v57.15C47.167,60.513,59.96,47.72,59.96,31.938"/>
	<path fill="#FFFFFF" d="M27.101,49.663h1.547c0,0,2.834-14.69,21.906-11.598c0,0-10.567-1.716-15.979,5.585
		c0,0,2.148,0.084,3.866,0.686c0,0,6.959,2.665,10.997-0.686c0,0,2.834-2.063,4.294-4.039c0,0,1.805-1.718,3.351-1.46
		c0,0-13.918-12.112-27.062,5.5c0,0,4.381-25.344-20.188-26.891c0,0,1.632,0.601,1.804,5.584c0,0,0.257,10.138,8.076,13.316
		c0,0,4.639,1.719,6.014,3.264c0,0,3.867-7.215-9.793-17.181C15.934,21.742,35.004,30.704,27.101,49.663"/>
</g>
<g>
	<defs>
		<rect id="SVGID_1_" x="31.385" y="1.83" width="35.615" height="60.217"/>
	</defs>
	<clipPath id="SVGID_2_">
		<use xlink:href="#SVGID_1_"  overflow="visible"/>
	</clipPath>
	<g clip-path="url(#SVGID_2_)">
		<path fill="#0BD18F" d="M58.85,31.417c0-14.92-12.095-27.016-27.016-27.016c-14.92,0-27.016,12.096-27.016,27.016
			c0,14.921,12.095,27.016,27.016,27.016C46.755,58.433,58.85,46.338,58.85,31.417"/>
		<path fill="#06AD79" d="M58.989,31.417c0-14.923-12.305-27.02-27.483-27.02v54.04C46.685,58.437,58.989,46.34,58.989,31.417"/>
		<path fill="none" stroke="#FFFFFF" stroke-width="2" stroke-miterlimit="10" d="M32.284,60.219
			c1.416-5.65,3.713-9.973,8.172-13.777"/>
		<path fill="none" stroke="#FFFFFF" stroke-width="2" stroke-miterlimit="10" d="M45.248,22.331
			c-5.336,5.466-4.73,16.317-5.354,23.537"/>
		<path fill="none" stroke="#FFFFFF" stroke-width="2" stroke-miterlimit="10" d="M50.32,36.109
			c-1.207,4.116-6.833,7.739-10.709,10.333"/>
		<path fill="none" stroke="#FFFFFF" stroke-width="2" stroke-miterlimit="10" d="M39.611,45.868
			c1.969-3.529,4.928-8.021,5.073-12.056"/>
		<path fill="none" stroke="#FFFFFF" stroke-width="2" stroke-miterlimit="10" d="M17.63,40.127
			c5.07,0.113,8.702,1.496,10.787,6.299c1.591,3.669,3.152,7.937,3.022,12.071"/>
		<path fill="none" stroke="#FFFFFF" stroke-width="2" stroke-miterlimit="10" d="M16.785,31.229
			c3.676,2.438,10.958,7.813,11.272,12.917"/>
		<path fill="none" stroke="#FFFFFF" stroke-width="2" stroke-miterlimit="10" d="M28.057,28.359c0,5.864-0.503,12.531,1.127,18.083
			"/>
		<path fill="none" stroke="#FFFFFF" stroke-width="2" stroke-miterlimit="10" d="M32.566,57.063c0-5.291-1.733-14.63,0.563-18.944"
			/>
		<path fill="none" stroke="#FFFFFF" stroke-width="2" stroke-miterlimit="10" d="M20.166,26.924c4.051,3.8,6.795,8.077,6.2,13.49"
			/>
		<path fill="none" stroke="#FFFFFF" stroke-width="2" stroke-miterlimit="10" d="M20.448,14.868
			c2.437,5.366,3.747,10.671,3.664,16.361"/>
		<path fill="none" stroke="#FFFFFF" stroke-width="2" stroke-miterlimit="10" d="M26.93,13.146c-1.532,4.438-2.258,8-2.255,12.63"
			/>
		<path fill="none" stroke="#FFFFFF" stroke-width="2" stroke-miterlimit="10" d="M33.975,12.859
			c-2.852,3.002-6.01,6.045-7.89,9.814c-1.361,2.727-0.644,6.186-1.692,8.556"/>
		<path fill="none" stroke="#FFFFFF" stroke-width="2" stroke-miterlimit="10" d="M33.693,23.479
			c-2.563,6.651-3.351,11.584-2.818,18.657"/>
		<path fill="none" stroke="#FFFFFF" stroke-width="2" stroke-miterlimit="10" d="M30.875,20.896
			c0.21,1.861,0.213,3.707,0.564,5.453"/>
		<path fill="none" stroke="#FFFFFF" stroke-width="2" stroke-miterlimit="10" d="M38.202,30.081
			c1.084,3.594,1.686,9.125,1.409,12.917"/>
		<path fill="#FFFFFF" d="M17.912,40.127c0-1.427-1.135-2.584-2.536-2.584s-2.536,1.157-2.536,2.584
			c0,1.426,1.135,2.583,2.536,2.583S17.912,41.554,17.912,40.127"/>
		<path fill="#FFFFFF" d="M16.503,30.081c0-1.427-1.135-2.583-2.536-2.583c-1.401,0-2.537,1.157-2.537,2.583
			c0,1.427,1.136,2.583,2.537,2.583C15.368,32.665,16.503,31.508,16.503,30.081"/>
		<path fill="#FFFFFF" d="M20.448,24.627c0,1.427-1.135,2.583-2.536,2.583c-1.401,0-2.536-1.157-2.536-2.583
			c0-1.427,1.135-2.583,2.536-2.583C19.313,22.044,20.448,23.2,20.448,24.627"/>
		<path fill="#FFFFFF" d="M22.42,13.146c0,1.268-1.009,2.296-2.254,2.296c-1.245,0-2.254-1.028-2.254-2.296s1.01-2.296,2.254-2.296
			C21.412,10.849,22.42,11.877,22.42,13.146"/>
		<path fill="#FFFFFF" d="M29.185,10.849c0,1.269-1.01,2.296-2.254,2.296c-1.245,0-2.255-1.028-2.255-2.296
			c0-1.268,1.01-2.296,2.255-2.296C28.175,8.553,29.185,9.582,29.185,10.849"/>
		<path fill="#FFFFFF" d="M37.813,10.849c0,1.445-1.151,2.618-2.57,2.618c-1.419,0-2.57-1.173-2.57-2.618
			c0-1.445,1.15-2.617,2.57-2.617C36.662,8.232,37.813,9.404,37.813,10.849"/>
		<path fill="#FFFFFF" d="M30.17,25.775c0-1.189-0.946-2.152-2.113-2.152c-1.168,0-2.114,0.963-2.114,2.152s0.946,2.153,2.114,2.153
			C29.225,27.929,30.17,26.964,30.17,25.775"/>
		<path fill="#FFFFFF" d="M34.539,18.886c0,1.446-1.15,2.616-2.568,2.616s-2.568-1.17-2.568-2.616c0-1.444,1.15-2.615,2.568-2.615
			S34.539,17.442,34.539,18.886"/>
		<ellipse fill="none" stroke="#FFFFFF" stroke-width="2" stroke-miterlimit="10" cx="31.971" cy="18.886" rx="2.568" ry="2.616"/>
		<path fill="#FFFFFF" d="M37.075,36.109c0-1.427-1.135-2.584-2.536-2.584c-1.401,0-2.537,1.157-2.537,2.584
			s1.136,2.583,2.537,2.583C35.94,38.692,37.075,37.536,37.075,36.109"/>
		<path fill="#FFFFFF" d="M40.739,27.498c0-1.427-1.136-2.584-2.537-2.584s-2.536,1.157-2.536,2.584s1.135,2.584,2.536,2.584
			S40.739,28.925,40.739,27.498"/>
		<path fill="#FFFFFF" d="M38.202,22.331c0-1.427-1.135-2.583-2.536-2.583c-1.401,0-2.537,1.157-2.537,2.583
			c0,1.427,1.135,2.583,2.537,2.583C37.067,24.914,38.202,23.758,38.202,22.331"/>
		<path fill="#FFFFFF" d="M49.756,20.896c0-1.427-1.134-2.584-2.535-2.584c-1.402,0-2.537,1.157-2.537,2.584
			c0,1.427,1.135,2.583,2.537,2.583C48.622,23.479,49.756,22.323,49.756,20.896"/>
		<path fill="#FFFFFF" d="M47.784,31.229c0-1.427-1.135-2.583-2.536-2.583s-2.536,1.156-2.536,2.583
			c0,1.427,1.135,2.584,2.536,2.584S47.784,32.656,47.784,31.229"/>
		<path fill="#FFFFFF" d="M54.266,34.1c0-1.427-1.136-2.583-2.537-2.583c-1.4,0-2.536,1.157-2.536,2.583s1.136,2.583,2.536,2.583
			C53.13,36.683,54.266,35.526,54.266,34.1"/>
		<path fill="none" stroke="#FFFFFF" stroke-width="2" stroke-miterlimit="10" d="M18.898,25.632
			c-0.238-0.251,1.306,1.378,1.537,1.64c0.121,0.095,0.341,0.431,0.295,0.37"/>
		<path fill="none" stroke="#FFFFFF" stroke-width="2" stroke-miterlimit="10" d="M17.208,31.66
			c-0.657-0.38-2.423-1.234-2.818-1.722"/>
		<path fill="none" stroke="#FFFFFF" stroke-width="2" stroke-miterlimit="10" d="M28.762,45.438c0.396,1.239,0.69,2.26,0.845,3.444
			"/>
		<path fill="none" stroke="#FFFFFF" stroke-width="2" stroke-miterlimit="10" d="M30.593,40.988c0.454,1.489,0.71,2.712,1.55,3.875
			"/>
		<path fill="none" stroke="#FFFFFF" stroke-width="2" stroke-miterlimit="10" d="M39.47,47.59c0.145-2.084-0.141-3.422-0.141-5.311
			"/>
		<path fill="none" stroke="#FFFFFF" stroke-width="2" stroke-miterlimit="10" d="M39.188,47.59c0.956-0.752,1.937-1.424,2.536-2.44
			"/>
		<path fill="none" stroke="#FFFFFF" stroke-width="2" stroke-miterlimit="10" d="M37.357,29.077
			c0.324,0.753,0.566,1.435,0.986,2.009"/>
		<path fill="none" stroke="#FFFFFF" stroke-width="2" stroke-miterlimit="10" d="M44.825,32.664
			c-0.135,0.665-0.229,1.334-0.282,2.01"/>
		<path fill="none" stroke="#FFFFFF" stroke-width="2" stroke-miterlimit="10" d="M32.002,28.502
			c-0.365-1.09-0.886-2.268-0.845-3.445"/>
		<path fill="none" stroke="#FFFFFF" stroke-width="2" stroke-miterlimit="10" d="M27.916,26.636
			c0.001,0.948-0.012,1.619,0.141,2.44"/>
		<path fill="none" stroke="#FFFFFF" stroke-width="2" stroke-miterlimit="10" d="M24.535,29.077
			c0.003-1.163,0.154-2.704-0.142-3.875"/>
		<path fill="none" stroke="#FFFFFF" stroke-width="2" stroke-miterlimit="10" d="M27.07,12.141
			c-0.042,0.658-0.174,1.361-0.282,2.009"/>
		<path fill="none" stroke="#FFFFFF" stroke-width="2" stroke-miterlimit="10" d="M31.439,61.511
			c0.387-1.704,1.009-3.736,0.563-5.453"/>
	</g>
</g>
</svg>
