<?xml version="1.0" encoding="utf-8"?>
<!-- Generator: Adobe Illustrator 15.1.0, SVG Export Plug-In . SVG Version: 6.00 Build 0)  -->
<!DOCTYPE svg PUBLIC "-//W3C//DTD SVG 1.1//EN" "http://www.w3.org/Graphics/SVG/1.1/DTD/svg11.dtd">
<svg version="1.1" id="Layer_1" xmlns="http://www.w3.org/2000/svg" xmlns:xlink="http://www.w3.org/1999/xlink" x="0px" y="0px"
	 width="63.5px" height="59.89px" viewBox="0 0 63.5 59.89" enable-background="new 0 0 63.5 59.89" xml:space="preserve">
<path fill="none" stroke="#FFFFFF" stroke-width="2" stroke-miterlimit="10" d="M74.873,420.945
	c0.797-3.504,2.075-7.68,1.159-11.211"/>
<g>
	<path fill="#0BD18F" d="M61.19,30.173C61.19,14.613,48.577,2,33.017,2S4.843,14.613,4.843,30.173
		c0,15.561,12.613,28.174,28.174,28.174S61.19,45.734,61.19,30.173"/>
	<path fill="#06AD79" d="M61.19,30.251c0-15.515-12.794-28.093-28.575-28.093v56.186C48.396,58.344,61.19,45.767,61.19,30.251"/>
	<path fill="#FFFFFF" d="M52.079,50.836c0,0-9.465-21.159-17.539-25.335c0,0,5.289-1.392,10.857,4.176l1.392-0.557l-0.834-2.227
		l3.154-1.546v-1.517h2.97l-2.97-2.505l-2.876-1.671l-2.925,2.228l-0.973-2.228h2.227l-2.506-1.949c-0.277-1.67-3.062,0-3.062,0
		l-2.229,2.506l-0.834,0.835l-1.393,1.392l-1.392-0.278l1.948-3.063l1.949-2.134l0.556-2.599h-2.782L33.148,9.91
		c-0.835,2.228-3.063,1.949-3.063,1.949c-0.557,2.506-2.226,2.227-2.226,2.227l2.782,6.125l-0.277,1.949l-2.505-1.67l-1.948-5.011
		c-2.229-0.557-4.734-0.835-4.734-0.835L17,14.922l-2.506,2.227L17,17.983c2.784,0.836,3.619,2.785,3.619,2.785l2.228-1.114
		l0.836,1.949h2.783l1.671,1.393l-1.671,1.113l-3.619,0.278l-3.341,0.279c-3.063,0.278-5.012,1.114-5.012,1.114v1.392
		c-1.391,2.784-2.228,3.202-2.228,3.202c-0.556,1.531,3.063,1.81,3.063,1.81c2.228,0.278,4.176,1.113,4.176,1.113l0.835,1.95
		l3.063,0.835l2.227,0.278c-0.277-3.341,1.393-5.985,1.393-5.985c0.277-1.81,1.671-2.924,1.671-2.924
		c1.671-1.392,0.278,2.924,0.278,2.924l0.279,4.593c1.948,1.392,2.894,3.341,2.894,3.341c1.282,2.505,1.84,4.733,1.84,4.733
		l2.504-1.949l1.113-2.228l1.671,1.949c2.227-1.671,0.279-4.455,0.279-4.455c-2.229-3.063-3.342-5.985-3.342-5.985l-1.113-1.81
		c0,0,8.631,6.96,15.313,22.272l1.67,2.228h1.671L52.079,50.836z"/>
</g>
<g>
	<defs>
		<rect id="SVGID_1_" y="2.199" width="32.615" height="55.145"/>
	</defs>
	<clipPath id="SVGID_2_">
		<use xlink:href="#SVGID_1_"  overflow="visible"/>
	</clipPath>
	<g clip-path="url(#SVGID_2_)">
		<path fill="#0BD18F" d="M58.603,29.771c0-14.452-11.716-26.167-26.168-26.167c-14.453,0-26.168,11.716-26.168,26.167
			c0,14.453,11.715,26.168,26.168,26.168C46.887,55.939,58.603,44.224,58.603,29.771"/>
		<path fill="#06AD79" d="M58.603,29.771c0-14.452-11.716-26.167-26.168-26.167v52.336C46.887,55.939,58.603,44.224,58.603,29.771"
			/>
		<path fill="#FFFFFF" d="M28.511,46.003h1.417c0,0,2.596-13.452,20.061-10.621c0,0-9.677-1.572-14.632,5.115
			c0,0,1.967,0.078,3.54,0.628c0,0,6.373,2.44,10.071-0.628c0,0,2.596-1.889,3.933-3.699c0,0,1.653-1.573,3.069-1.337
			c0,0-12.746-11.091-24.783,5.036c0,0,4.012-23.209-18.488-24.626c0,0,1.494,0.551,1.652,5.114c0,0,0.235,9.284,7.396,12.194
			c0,0,4.248,1.574,5.507,2.989c0,0,3.541-6.607-8.968-15.734C18.285,20.435,35.749,28.642,28.511,46.003"/>
	</g>
</g>
</svg>
