<?xml version="1.0" encoding="utf-8"?>
<!-- Generator: Adobe Illustrator 16.0.0, SVG Export Plug-In . SVG Version: 6.00 Build 0)  -->
<!DOCTYPE svg PUBLIC "-//W3C//DTD SVG 1.1//EN" "http://www.w3.org/Graphics/SVG/1.1/DTD/svg11.dtd">
<svg version="1.1" id="Laag_1" xmlns="http://www.w3.org/2000/svg" xmlns:xlink="http://www.w3.org/1999/xlink" x="0px" y="0px"
	 width="200px" height="200px" viewBox="0 0 200 200" enable-background="new 0 0 200 200" xml:space="preserve">
<g>
	<path opacity="0.7" fill="#137A55" enable-background="new    " d="M200,59.895C179.204,36.699,149.012,22.1,115.407,22.1
		C52.677,22.1,1.824,72.953,1.824,135.684c0,23.621,7.211,45.554,19.551,63.727H200V59.895z"/>
</g>
<g id="Laag_9">
	<ellipse opacity="0.1" enable-background="new    " cx="150.85" cy="165.153" rx="19.861" ry="1.055"/>
</g>
<path fill="#603813" d="M143.014,134.229c0,0,0.288-0.357,0.604-0.316c0.315,0.039-0.258,0.459-0.258,0.459L143.014,134.229z"/>
<path fill="#603813" d="M159.063,134.229c0,0-0.354-0.357-0.743-0.316c-0.389,0.039,0.315,0.459,0.315,0.459L159.063,134.229z"/>
<g>
	
		<image overflow="visible" opacity="0.5" enable-background="new    " width="66" height="50" xlink:href="A2B533D88ACC583.png"  transform="matrix(0.9474 0 0 0.9474 119.918 130.4971)">
	</image>
	<g>
		<path fill="#E67E22" d="M134.231,163.58c0.218-1.109,0.37-2.24,0.663-3.328c1.283-4.764,3.902-8.47,7.972-11.016
			c0.408-0.258,3.776-2.043,4.135-1.739c1.937,1.639,6.632,1.822,8.89-0.07c0.403-0.339,2.826,1.545,3.279,1.837
			c4.792,3.091,7.53,7.593,8.411,13.394c0.025,0.172,0.087,0.341,0.131,0.513c0,0.687,0,1.373,0,2.062c-11.16,0-22.32,0-33.481,0
			C134.231,164.682,134.231,164.132,134.231,163.58z"/>
	</g>
</g>
<g>
	
		<image overflow="visible" opacity="0.5" enable-background="new    " width="51" height="52" xlink:href="A2B533D88ACC581.png"  transform="matrix(0.9474 0 0 0.9474 126.5498 115.3379)">
	</image>
	<g>
		<path fill="#E67E22" d="M160.28,140.043c0.003,5.434-4.124,9.785-9.282,9.789c-5.142,0.002-9.308-4.373-9.312-9.775
			c-0.004-5.42,4.139-9.774,9.298-9.774C156.162,130.282,160.276,134.604,160.28,140.043z"/>
	</g>
</g>
<g id="Laag_7">
	<g>
		<g>
			<path fill="#009245" d="M145.378,132.91c1.856,0.451,3.537,2.515,5.507,2.226c0.312-0.046,0.585-0.374,0.661-0.66
				c0.093-0.354,0.179-0.683-0.02-1.021c-0.162-0.277-1.011-0.674-1.053-0.796c-0.081,0.306-0.162,0.614-0.243,0.922
				c0.064-0.054,0.129-0.109,0.193-0.163c-0.389-0.222-0.777-0.442-1.165-0.662c-0.013,0.005-0.025,0.009-0.038,0.015
				c-0.375,1.03,1.202,1.636,1.732,0.729c0.76-1.299,1.463-2.426,1.502-3.965c0.024-0.986-1.27-1.234-1.765-0.479
				c-0.666,1.016-1.472,2.605-1.472,3.845c0,1.379,1.141,1.685,2.177,2.158c1.226,0.561,2.257-0.994,3.298-1.329
				c1.104-0.356,1.634-0.251,2.238-1.306c0.489-0.857-0.467-1.722-1.296-1.298c-0.655,0.335-1.459,0.37-2.135,0.683
				c-0.782,0.361-1.491,1.224-2.341,1.381c0.399,0.304,0.8,0.608,1.199,0.912c0.006,0.148,0.762-0.716,0.743-0.695
				c0.816-0.903-0.52-2.249-1.34-1.34c-0.541,0.598-1.331,1.147-1.298,2.035c0.025,0.653,0.584,1.029,1.2,0.914
				c0.729-0.135,1.277-0.6,1.851-1.044c0.908-0.703,2.085-0.704,3.076-1.21c-0.432-0.433-0.863-0.864-1.295-1.297
				c-0.316,0.554-1.864,0.646-2.667,1.218c-2.249,1.605-0.944-1.693-0.303-2.67c-0.589-0.159-1.176-0.318-1.765-0.479
				c-0.029,1.171-0.678,2.041-1.244,3.011c0.577,0.242,1.154,0.486,1.731,0.729c0.141-0.385,0.148-0.627,0.037-1.02
				c-0.133-0.476-0.675-0.829-1.166-0.66c-0.475,0.161-0.693,0.273-1.029,0.649c-0.218,0.244-0.355,0.594-0.243,0.921
				c0.282,0.829,0.901,0.827,1.392,1.442c-0.082-0.308-0.162-0.615-0.243-0.922c-0.025,0.096-0.052,0.192-0.077,0.29
				c0.221-0.222,0.441-0.442,0.661-0.662c-0.432,0.064-1.556-0.908-1.866-1.146c-0.796-0.608-1.681-0.848-2.633-1.08
				C144.694,130.793,144.19,132.621,145.378,132.91L145.378,132.91z"/>
		</g>
	</g>
</g>
<g>
	<path fill="#009245" d="M158.678,130.841c-0.283,0.422-0.537,0.816-0.806,1.199c-0.719,1.023-1.509,1.98-2.539,2.711
		c-1.415,1.001-2.932,1.227-4.556,0.566c-0.047-0.019-0.09-0.041-0.151-0.07c0.434-0.252,0.878-0.459,1.265-0.746
		c0.805-0.592,1.576-1.227,2.36-1.843c0.564-0.446,1.172-0.811,1.876-0.995c0.144-0.037,0.279-0.104,0.419-0.157
		c-0.006-0.021-0.011-0.043-0.017-0.063c-0.357,0.107-0.721,0.198-1.07,0.322c-1.054,0.374-1.811,1.169-2.633,1.87
		c-0.661,0.564-1.377,1.039-2.232,1.37c0.047-0.087,0.068-0.146,0.104-0.196c0.477-0.67,0.923-1.366,1.438-2.004
		c0.914-1.129,2.117-1.799,3.547-2.018C156.657,130.644,157.641,130.679,158.678,130.841z"/>
	<path fill="#009245" d="M143.408,130.834c1.001-0.154,1.992-0.189,2.977-0.039c1.557,0.236,2.788,1.04,3.749,2.272
		c0.232,0.3,0.438,0.618,0.675,0.912c0.152,0.188,0.156,0.348-0.006,0.52c-0.039,0.043-0.067,0.097-0.109,0.156
		c-0.685-0.347-1.253-0.839-1.833-1.319c-0.562-0.465-1.134-0.922-1.743-1.321c-0.481-0.313-1.043-0.474-1.628-0.517
		c0.334,0.124,0.671,0.24,0.999,0.376c0.557,0.229,1.057,0.551,1.502,0.954c0.805,0.731,1.643,1.414,2.62,1.958
		c-0.085,0.141-0.165,0.274-0.259,0.426c0.167,0.077,0.324,0.151,0.481,0.226c0.002,0.019,0.005,0.035,0.008,0.052
		c-0.323,0.062-0.645,0.145-0.971,0.178c-1.403,0.139-2.58-0.396-3.627-1.274c-1.166-0.981-2.024-2.216-2.828-3.492
		C143.408,130.891,143.412,130.871,143.408,130.834z"/>
	<path fill="#009245" d="M151.02,134.149c-0.18-0.257-0.344-0.479-0.494-0.71c-0.041-0.063-0.06-0.156-0.054-0.233
		c0.061-0.775,0.111-1.553,0.196-2.326c0.083-0.757,0.324-1.471,0.688-2.143c0.045-0.083,0.085-0.17,0.104-0.267
		c-0.464,0.6-0.785,1.27-0.891,2.016c-0.106,0.745-0.142,1.498-0.209,2.25c-0.012,0.122-0.025,0.246-0.039,0.377
		c-0.358-0.364-0.7-0.709-1.034-1.061c-0.042-0.046-0.053-0.135-0.053-0.205c-0.02-1.462,0.566-2.688,1.49-3.778
		c0.517-0.612,1.113-1.138,1.799-1.644c0.124,0.631,0.278,1.222,0.35,1.823c0.099,0.83,0.155,1.671,0.185,2.507
		c0.013,0.363-0.081,0.729-0.136,1.094c-0.008,0.052-0.052,0.105-0.094,0.143c-0.68,0.577-1.212,1.278-1.703,2.015
		C151.098,134.048,151.066,134.087,151.02,134.149z"/>
	<path fill="#006837" d="M152.522,126.426c0,0-2.104,2.406-2.033,6.936l0.53,0.788c0,0,0.413-0.834,1.902-2.298
		C152.922,131.852,153.457,130.369,152.522,126.426z"/>
	<path fill="#006837" d="M158.678,130.841c0,0-3.199,0.602-4.774,2.093l-1.363,1.077c0,0-1.394,0.98-1.913,1.236
		c0,0,2.498,1.274,4.708-0.496C155.333,134.751,157.021,133.65,158.678,130.841z"/>
	<path fill="#006837" d="M143.408,130.834c0,0,3.377,0.596,4.611,1.826c0,0,2.218,1.891,2.674,1.995l0.288-0.407
		c0,0-1.745-3.027-4.064-3.348C146.916,130.9,145.272,130.48,143.408,130.834z"/>
</g>
<path fill="#754C24" d="M143.023,134.199c0,0,9.89,1.906,16.066,0c0,0,0.498,0.771,0.579,1.36c0,0-5.33,1.83-17.399-0.029
	L143.023,134.199z"/>
<g id="Layer_1_2_">
	<path fill="#FFFFFF" stroke="#000000" stroke-miterlimit="10" d="M137.322,155.961"/>
	<g>
		<g>
			<path id="SVGID_2_" fill="#00AD79" d="M138.973,161.434c-0.858-0.466-1.686-2.523-1.692-3.4c0.737,0.32,0.737,0.32,0.737,0.32
				l-0.676-0.722c0,0-0.287-0.92,0.016-1.49c0.809,0.33,1.018,0.363,1.018,0.363l-0.823-0.85c0,0-0.427-0.091,0.28-1.423
				c0.69,0.621,0.862,0.674,0.862,0.674l-0.531-1.188c0,0,0.834-1.621,1.952-1.909l-0.951,9.655
				C139.165,161.464,139.165,161.464,138.973,161.434z"/>
		</g>
	</g>
	<g>
		<g>
			<g>
				<g>
					<defs>
						<path id="SVGID_3_" d="M139.28,161.473c0.929-0.238,2.149-2.035,2.334-2.887c-0.783,0.126-0.783,0.126-0.783,0.126
							l0.803-0.534c0,0,0.466-0.824,0.286-1.455c-0.854,0.119-1.063,0.099-1.063,0.099l0.971-0.618c0,0,0.436,0.019,0.016-1.458
							c-0.799,0.433-0.977,0.44-0.977,0.44l0.757-1.025c0,0-0.485-1.787-1.517-2.352l-1.021,9.646
							C139.087,161.454,139.087,161.454,139.28,161.473z"/>
					</defs>
					<clipPath id="SVGID_4_">
						<use xlink:href="#SVGID_3_"  overflow="visible"/>
					</clipPath>
					<polygon clip-path="url(#SVGID_4_)" fill="#006838" points="142.393,162.398 137.545,161.913 138.068,151.474 142.916,151.96 
											"/>
				</g>
			</g>
		</g>
	</g>
	<g>
		<g>
			<path fill="#006838" d="M139.075,161.497c-0.027,0.488-0.057,0.98-0.316,1.408c-0.063,0.102,0.138,0.002,0.168-0.048
				c0.274-0.448,0.309-0.965,0.336-1.477C139.266,161.323,139.079,161.427,139.075,161.497L139.075,161.497z"/>
		</g>
	</g>
</g>
<g id="Layer_2_2_">
	<g>
		<g>
			<path fill="#006838" d="M137.709,159.371c0.036,0.459,0.052,0.931-0.036,1.386c-0.022,0.116,0.221,0.085,0.24-0.021
				c0.091-0.468,0.071-0.955,0.033-1.431C137.938,159.199,137.699,159.258,137.709,159.371L137.709,159.371z"/>
		</g>
	</g>
	<g>
		<g>
			<path fill="#006838" d="M137.393,159.541c0.041,0.337,0.193,0.674,0.171,1.014c0.065-0.023,0.131-0.048,0.196-0.071
				c-0.212-0.089-0.2-0.58-0.209-0.765c-0.006-0.115-0.008-0.229-0.007-0.344c0.001-0.06,0.007-0.241,0.106-0.189
				c0.028,0.015,0.146,0.19,0.122,0.196c-0.09,0.019-0.188,0.122-0.038,0.089c0.197-0.041,0.326-0.159,0.152-0.337
				c-0.136-0.139-0.411-0.058-0.511,0.083c-0.117,0.167-0.05,0.517-0.034,0.707c0.015,0.194,0.023,0.56,0.241,0.647
				c0.046,0.019,0.192-0.013,0.196-0.073c0.021-0.343-0.131-0.678-0.172-1.017C137.604,159.432,137.386,159.479,137.393,159.541
				L137.393,159.541z"/>
		</g>
	</g>
	<g>
		<g>
			<path fill="#006838" d="M136.456,153.677c0,0,0.063,1.144,0.174,1.819c0.11,0.674,0.453,2.272,0.453,2.272
				s0.19,1.154,0.545,0.993C137.33,157.471,136.456,153.677,136.456,153.677z"/>
			<path fill="#00AD79" d="M136.456,153.677c0,0,0.444,1.057,0.641,1.712c0.196,0.653,0.587,2.241,0.587,2.241
				s0.335,1.121-0.055,1.13C137.33,157.471,136.456,153.677,136.456,153.677z"/>
		</g>
		<g>
			<path fill="#006838" d="M137.713,153.333c0,0-0.193,1.129-0.236,1.81c-0.043,0.683-0.065,2.316-0.065,2.316
				s-0.071,1.17,0.311,1.09C137.72,157.227,137.713,153.333,137.713,153.333z"/>
			<path fill="#00AD79" d="M137.713,153.333c0,0,0.198,1.129,0.243,1.81s0.071,2.316,0.071,2.316s0.076,1.168-0.306,1.09
				C137.72,157.227,137.713,153.333,137.713,153.333z"/>
		</g>
		<g>
			<path fill="#006838" d="M134.357,154.64c0,0,0.576,1.04,0.978,1.628c0.402,0.587,1.424,1.95,1.424,1.95s0.688,1.005,0.915,0.729
				C136.833,157.854,134.357,154.64,134.357,154.64z"/>
			<path fill="#00AD79" d="M134.357,154.64c0,0,0.859,0.821,1.325,1.359c0.465,0.539,1.521,1.877,1.521,1.877
				s0.796,0.923,0.471,1.071C136.833,157.854,134.357,154.64,134.357,154.64z"/>
		</g>
		<g>
			<g>
				<path fill="#006838" d="M137.545,159.182c0.003,0.713,0.071,1.431-0.047,2.14c-0.114,0.672-0.519,1.168-0.937,1.686
					c-0.063,0.076,0.209,0.041,0.254-0.015c0.404-0.498,0.82-0.99,0.943-1.638c0.142-0.742,0.068-1.499,0.065-2.248
					C137.824,159.049,137.545,159.094,137.545,159.182L137.545,159.182z"/>
			</g>
		</g>
		<g>
			<path fill="#006838" d="M133.306,155.944c0,0,0.829,0.858,1.375,1.315c0.546,0.455,1.906,1.483,1.906,1.483
				s0.937,0.779,1.105,0.413C136.579,158.34,133.306,155.944,133.306,155.944z"/>
			<path fill="#00AD79" d="M133.306,155.944c0,0,1.069,0.53,1.669,0.914c0.6,0.383,1.989,1.369,1.989,1.369s1.027,0.656,0.729,0.929
				C136.579,158.34,133.306,155.944,133.306,155.944z"/>
		</g>
		<g>
			<path fill="#006838" d="M132.735,156.884c0,0,0.946,0.728,1.554,1.1c0.606,0.371,2.103,1.188,2.103,1.188
				s1.041,0.635,1.154,0.248C136.325,158.775,132.735,156.884,132.735,156.884z"/>
			<path fill="#00AD79" d="M132.735,156.884c0,0,1.136,0.37,1.785,0.661c0.649,0.29,2.169,1.062,2.169,1.062s1.111,0.5,0.856,0.812
				C136.325,158.775,132.735,156.884,132.735,156.884z"/>
		</g>
		<g>
			<path fill="#006838" d="M139.57,153.736c0,0-0.536,1.012-0.789,1.646c-0.253,0.633-0.784,2.182-0.784,2.182
				s-0.432,1.087-0.045,1.131C138.363,157.438,139.57,153.736,139.57,153.736z"/>
			<path fill="#00AD79" d="M139.57,153.736c0,0-0.164,1.135-0.333,1.795c-0.171,0.662-0.654,2.225-0.654,2.225
				s-0.292,1.132-0.631,0.939C138.363,157.438,139.57,153.736,139.57,153.736z"/>
		</g>
		<g>
			<path fill="#006838" d="M140.693,154.82c0,0-0.795,0.825-1.212,1.366c-0.418,0.54-1.353,1.882-1.353,1.882
				s-0.716,0.927-0.354,1.077C138.514,158.048,140.693,154.82,140.693,154.82z"/>
			<path fill="#00AD79" d="M140.693,154.82c0,0-0.469,1.046-0.815,1.635c-0.345,0.588-1.239,1.957-1.239,1.957
				s-0.593,1.011-0.865,0.733C138.514,158.048,140.693,154.82,140.693,154.82z"/>
		</g>
		<g>
			<path fill="#006838" d="M141.473,156.381c0,0-0.91,0.584-1.417,0.984c-0.508,0.397-1.682,1.406-1.682,1.406
				s-0.87,0.687-0.603,0.877C138.711,158.819,141.473,156.381,141.473,156.381z"/>
			<path fill="#00AD79" d="M141.473,156.381c0,0-0.692,0.83-1.151,1.284c-0.458,0.455-1.604,1.495-1.604,1.495
				s-0.787,0.777-0.944,0.488C138.711,158.819,141.473,156.381,141.473,156.381z"/>
		</g>
		<g>
			<path fill="#006838" d="M134.42,160.457c0,0,0.698,0.19,1.12,0.233c0.422,0.042,1.433,0.068,1.433,0.068s0.724,0.07,0.676-0.302
				C136.83,160.457,134.42,160.457,134.42,160.457z"/>
			<path fill="#00AD79" d="M134.42,160.457c0,0,0.698-0.192,1.12-0.235c0.422-0.042,1.433-0.066,1.433-0.066
				s0.724-0.072,0.676,0.302C136.83,160.457,134.42,160.457,134.42,160.457z"/>
		</g>
		<g>
			<path fill="#006838" d="M140.656,158.705c0,0-0.706,0.164-1.098,0.327c-0.391,0.163-1.292,0.624-1.292,0.624
				s-0.67,0.281-0.45,0.586C138.536,159.852,140.656,158.705,140.656,158.705z"/>
			<path fill="#00AD79" d="M140.656,158.705c0,0-0.523,0.499-0.873,0.738c-0.351,0.238-1.229,0.741-1.229,0.741
				s-0.602,0.407-0.736,0.058C138.536,159.852,140.656,158.705,140.656,158.705z"/>
		</g>
		<g>
			<path fill="#006838" d="M140.619,161.245c0,0-0.583-0.259-0.944-0.352s-1.239-0.246-1.239-0.246s-0.619-0.157-0.625,0.174
				C138.522,160.929,140.619,161.245,140.619,161.245z"/>
			<path fill="#00AD79" d="M140.619,161.245c0,0-0.633,0.074-1.006,0.058c-0.372-0.019-1.256-0.13-1.256-0.13
				s-0.639-0.031-0.547-0.35C138.522,160.929,140.619,161.245,140.619,161.245z"/>
		</g>
		<g>
			<path fill="#006838" d="M133.769,158.83c0,0,0.772,0.432,1.258,0.618c0.485,0.188,1.678,0.554,1.678,0.554
				s0.833,0.318,0.885-0.08C136.619,159.645,133.769,158.83,133.769,158.83z"/>
			<path fill="#00AD79" d="M133.769,158.83c0,0,0.883,0.041,1.395,0.141c0.511,0.099,1.716,0.417,1.716,0.417s0.876,0.17,0.71,0.534
				C136.619,159.645,133.769,158.83,133.769,158.83z"/>
		</g>
	</g>
</g>
<g id="Layer_1_1_">
	<path fill="#FFFFFF" stroke="#000000" stroke-miterlimit="10" d="M139.54,156.619"/>
	<g>
		<g>
			<path id="SVGID_1_" fill="#00AD79" d="M138.884,162.3c-0.602-0.77-0.544-2.986-0.203-3.793c0.55,0.587,0.55,0.587,0.55,0.587
				l-0.334-0.932c0,0,0.102-0.956,0.607-1.361c0.609,0.625,0.789,0.738,0.789,0.738l-0.42-1.104c0,0-0.354-0.254,0.822-1.195
				c0.388,0.844,0.523,0.96,0.523,0.96l-0.016-1.303c0,0,1.408-1.154,2.55-0.979l-4.706,8.485
				C139.048,162.401,139.048,162.401,138.884,162.3z"/>
		</g>
	</g>
	<g>
		<g>
			<g>
				<g>
					<defs>
						<path id="SVGID_5_" d="M139.151,162.457c0.948,0.15,2.78-1.016,3.288-1.725c-0.77-0.194-0.77-0.194-0.77-0.194l0.95-0.17
							c0,0,0.754-0.571,0.84-1.223c-0.831-0.229-1.017-0.333-1.017-0.333l1.139-0.182c0,0,0.391,0.187,0.591-1.332
							c-0.903,0.079-1.069,0.015-1.069,0.015l1.102-0.639c0,0,0.263-1.834-0.459-2.763l-4.766,8.449
							C138.98,162.363,138.98,162.363,139.151,162.457z"/>
					</defs>
					<clipPath id="SVGID_6_">
						<use xlink:href="#SVGID_5_"  overflow="visible"/>
					</clipPath>
					<polygon clip-path="url(#SVGID_6_)" fill="#006838" points="141.64,164.541 137.383,162.171 142.007,152.798 146.264,155.169 
											"/>
				</g>
			</g>
		</g>
	</g>
	<g>
		<g>
			<path fill="#006838" d="M138.951,162.398c-0.218,0.437-0.44,0.877-0.849,1.165c-0.097,0.069,0.125,0.058,0.173,0.024
				c0.43-0.302,0.666-0.765,0.895-1.223C139.197,162.313,138.983,162.335,138.951,162.398L138.951,162.398z"/>
		</g>
	</g>
</g>
<path fill="#301909" d="M142.894,151.886c0,0-0.027,0.818-0.976,1.856C141.918,153.742,141.573,152.095,142.894,151.886z"/>
<path fill="#603813" d="M142.741,151.921c0,0,3.333,1.129,5.111,4.514l-2.512,0.518c-1.657-3.526-5.825-4.021-5.825-4.021"/>
<path fill="#301909" d="M134.856,151.886c0,0,0.026,0.818,0.975,1.856C135.831,153.742,136.177,152.095,134.856,151.886z"/>
<path fill="#603813" d="M135.019,151.921c0,0-3.333,1.129-5.111,4.514l2.512,0.518c1.657-3.526,5.826-4.021,5.826-4.021"/>
<path fill="#4F2B0E" d="M136.024,153.585c0,0-1.489,0.601-2.596,1.813l-0.247-0.006c0,0,0.949-1.222,2.844-2.018L136.024,153.585
	L136.024,153.585z"/>
<path fill="#4F2B0E" d="M141.709,153.585c0,0,1.52,0.601,2.627,1.813l0.232-0.006c0,0-0.965-1.222-2.859-2.018V153.585
	L141.709,153.585z"/>
<path fill="#42240C" d="M142.884,151.886c-1.971-0.712-4.006-0.664-4.006-0.664s-2.051-0.048-4.021,0.664
	c0,0,0.855,0.773,0.975,1.856c0,0,0.902-0.333,3.047-0.398c2.143,0.065,3.038,0.398,3.038,0.398
	C141.995,152.711,142.884,151.886,142.884,151.886z"/>
<path fill="#8C6239" d="M148.92,157.972h-10.042h-10.016l-0.009,0.742c0,0,1.76,4.905,4.124,6.495c0,0,3.092,0.459,5.899,0.459
	c2.809,0,5.912-0.575,5.912-0.575c2.365-1.59,4.14-6.36,4.14-6.36L148.92,157.972z"/>
<path fill="#8C6239" d="M150.703,156.793c0-1.305-1.13-1.576-1.13-1.576c-2.428,0.141-9.95,0.279-10.77,0.296
	c-0.819-0.017-8.349-0.155-10.775-0.296c0,0-1.138,0.271-1.138,1.576l0.002-0.023c0,1.306,1.136,1.576,1.136,1.576
	c2.423,0.074,10.195,0.089,11.016,0.074c0.818,0.015,8.111,0,10.529-0.074c0,0,1.132-0.271,1.132-1.576L150.703,156.793z"/>
<path fill="#7C5331" d="M128.854,158.42l20.076-0.058l-0.026,0.133c0,0-18.185,0.63-19.605,1.059L128.854,158.42z"/>
<circle fill="#FBB03B" cx="151.069" cy="134.993" r="0.988"/>
<circle fill="#C1272D" cx="151.069" cy="134.994" r="0.714"/>
<g id="Laag_11">
	<ellipse opacity="0.1" enable-background="new    " cx="152.826" cy="118.742" rx="19.88" ry="1.056"/>
	<g>
		
			<image overflow="visible" opacity="0.5" enable-background="new    " width="67" height="50" xlink:href="A2B533D88ACC587.png"  transform="matrix(0.9474 0 0 0.9474 120.8652 84.0742)">
		</image>
		<g>
			<path fill="#3498CB" d="M135.55,116.994c0.223-1.13,0.378-2.281,0.676-3.388c1.307-4.849,3.971-8.621,8.114-11.214
				c0.416-0.26,3.843-2.079,4.209-1.769c1.97,1.669,6.751,1.855,9.048-0.071c0.41-0.345,2.877,1.573,3.337,1.871
				c4.879,3.144,7.667,7.727,8.562,13.63c0.026,0.178,0.09,0.348,0.135,0.521c0,0.699,0,1.399,0,2.101c-11.359,0-22.72,0-34.08,0
				C135.55,118.114,135.55,117.554,135.55,116.994z"/>
		</g>
	</g>
	<g>
		
			<image overflow="visible" opacity="0.5" enable-background="new    " width="51" height="52" xlink:href="A2B533D88ACC580.png"  transform="matrix(0.9474 0 0 0.9474 128.4443 67.9683)">
		</image>
		<g>
			<path fill="#3498CB" d="M162.063,93.034c0.004,5.53-4.196,9.96-9.447,9.962c-5.232,0.004-9.474-4.449-9.479-9.95
				c-0.006-5.515,4.212-9.949,9.463-9.948C157.872,83.099,162.061,87.498,162.063,93.034z"/>
		</g>
	</g>
	<circle fill="#F9974E" stroke="#000000" stroke-width="0.75" stroke-miterlimit="10" cx="143.504" cy="109.579" r="10.862"/>
	<circle fill="#C54230" stroke="#000000" stroke-width="0.75" stroke-miterlimit="10" cx="143.504" cy="109.579" r="9.383"/>
	<circle fill="#F9974E" stroke="#000000" stroke-width="0.5" stroke-miterlimit="10" cx="143.504" cy="109.58" r="3.351"/>
	<circle fill="#E35B45" stroke="#000000" stroke-width="0.5" stroke-miterlimit="10" cx="143.504" cy="109.579" r="2.736"/>
	<circle fill="#F9974E" stroke="#000000" stroke-width="0.75" stroke-miterlimit="10" cx="142.741" cy="103.196" r="2.985"/>
	<circle fill="#F9974E" stroke="#000000" stroke-width="0.75" stroke-miterlimit="10" cx="149.436" cy="107.321" r="2.985"/>
	<circle fill="#F9974E" stroke="#000000" stroke-width="0.75" stroke-miterlimit="10" cx="147.801" cy="114.29" r="2.985"/>
	<circle fill="#F9974E" stroke="#000000" stroke-width="0.75" stroke-miterlimit="10" cx="140.404" cy="115.108" r="2.986"/>
	<circle fill="#F9974E" stroke="#000000" stroke-width="0.75" stroke-miterlimit="10" cx="137.173" cy="108.723" r="2.985"/>
	<circle fill="#D25B3B" stroke="#000000" stroke-miterlimit="10" cx="142.741" cy="103.196" r="1.687"/>
	<circle fill="#D25B3B" stroke="#000000" stroke-miterlimit="10" cx="149.436" cy="107.322" r="1.688"/>
	<circle fill="#D25B3B" stroke="#000000" stroke-miterlimit="10" cx="147.762" cy="114.29" r="1.687"/>
	<circle fill="#D25B3B" stroke="#000000" stroke-miterlimit="10" cx="140.404" cy="115.107" r="1.688"/>
	<circle fill="#D25B3B" stroke="#000000" stroke-miterlimit="10" cx="137.173" cy="108.723" r="1.688"/>
	<path opacity="0.4" enable-background="new    " d="M143.543,98.717c-0.66,0-1.305,0.059-1.932,0.171
		c3.327,2.237,5.516,6.035,5.516,10.345c0,4.658-2.556,8.716-6.341,10.854c0.88,0.23,1.804,0.354,2.757,0.354
		c5.999,0,10.862-4.863,10.862-10.862S149.542,98.717,143.543,98.717z"/>
	<path fill="#754C3D" d="M164.447,118.636c0,0.298-0.236,0.256-0.499,0.256l0,0c-0.264,0-1.396,0.042-1.396-0.272V87.655
		c0-0.315,1.036,1.156,1.299,1.156l0.069-1.171c0.264,0,0.528-0.299,0.528,0.033L164.447,118.636L164.447,118.636z"/>
	<polygon fill="#563429" points="163.034,87.775 163.275,101.126 163.277,87.708 	"/>
	<polygon fill="#563429" points="163.382,87.765 163.5,94.239 163.5,87.731 	"/>
	<polygon fill="#563429" points="163.382,87.716 163.5,94.189 163.5,87.717 	"/>
	<polygon fill="#563429" points="163.382,87.716 163.5,98.099 163.5,87.718 	"/>
	<g>
		<path fill="#A8A8A8" d="M164.1,86.916c1.199,0,1.953-1.46,1.953-1.46c-0.703,0.708-1.431,1.46-1.968,1.46H164.1z"/>
		<path fill="#9B9B9B" d="M163.268,83.126h0.003c0.003-4.737-0.008-6.257-0.008-6.257l-2.79,8.661c0,0,0.758,1.386,1.947,1.386
			h0.508C162.967,86.916,163.115,83.126,163.268,83.126z"/>
		<path fill="#686868" d="M163.268,83.126h-0.003c-0.003-4.737,0.008-6.257,0.008-6.257l2.841,8.661c0,0-0.771,1.386-1.983,1.386
			h-0.518C163.572,86.916,163.422,83.126,163.268,83.126z"/>
		<path d="M163.271,83.126h-0.003c-0.152,0-0.301,3.79-0.34,3.79h0.336C163.268,85.021,163.27,83.126,163.271,83.126z"/>
		<path d="M163.63,86.916c-0.039,0-0.187-3.79-0.339-3.79h-0.021c-0.001,0-0.003,1.895-0.007,3.79H163.63z"/>
	</g>
	<g>
		<path d="M163.891,88.028c0.465,0.383,0.902,0.814,1.326,1.258c0.504,0.53,0.98,1.095,1.428,1.703
			c-0.976-0.274-1.571-1.227-2.376-1.795c-0.025,0.033-0.049,0.066-0.073,0.1c0.877,0.988,1.753,1.976,2.7,3.043
			c-1.038-0.16-1.714-0.828-2.413-1.659c0.126,0.413,0.232,0.723,0.315,1.04c0.087,0.332,0.15,0.673,0.168,1.038
			c-0.835-1.083-1.127-2.489-1.715-3.81c0.104,1.617,0.476,3.065,1.146,4.432c-0.564-0.142-1.089-0.951-1.625-2.317
			c0.09,0.687,0.181,1.375,0.282,2.146c-0.17-0.208-0.385-0.411-0.542-0.688c-0.255-0.442-0.822-1.75-0.096-3.247
			c-1.373,1.984-1.501,2.151-2.076,2.503c0.055-0.648,0.13-0.875,0.973-2c0.33-0.44,0.745-0.992,1.269-1.683
			c0.407-0.487,0.679-0.383,0.744-0.361 M165.819,91.526c-0.584-0.736-1.166-1.47-1.75-2.206
			C164.393,90.334,164.896,91.152,165.819,91.526z M161.465,90.21c0.378-0.491,0.756-0.982,1.135-1.475
			c-0.051-0.052-0.101-0.104-0.151-0.155C162.075,89.08,161.42,90.166,161.465,90.21z"/>
		<path fill="#EF1C24" d="M166.244,91.845c-0.923-0.373-1.958-1.364-2.174-2.525C164.653,90.056,165.512,91.158,166.244,91.845z"/>
		<path fill="#EF1C24" d="M163.057,88.767c0.13,0.845,0.463,2.763,0.594,3.61C163.08,91.704,162.771,89.707,163.057,88.767z"/>
		<path fill="#FBA649" d="M162.815,88.619c-0.024,0.805-0.256,2.217-0.284,3.145C162.168,90.79,162.354,89.371,162.815,88.619z"/>
		<path fill="#FBA649" d="M164.547,91.808c-0.245-0.665-0.849-2.181-1.094-2.845C163.898,89.254,164.521,90.809,164.547,91.808z"/>
		<path fill="#EB1C22" d="M162.65,88.369c0.13-0.068,0.191-0.06-0.051,0.366c-0.379,0.492-1.499,1.95-1.877,2.442
			C160.677,91.133,162.147,88.674,162.65,88.369z"/>
		<path fill="#FBA649" d="M165.924,90.423c-0.418-0.395-1.136-0.797-1.901-1.911C165.097,89.038,165.759,90.204,165.924,90.423z"/>
	</g>
	<path fill="#754C3D" stroke="#3D2D2B" stroke-width="0.5" stroke-miterlimit="10" d="M164.434,87.202
		c0,0.09-0.058,0.161-0.13,0.161h-1.836c-0.071,0-0.129-0.071-0.129-0.161l0,0c0-0.089,0.057-0.161,0.129-0.161h1.836
		C164.376,87.042,164.434,87.113,164.434,87.202L164.434,87.202z"/>
	<path fill="#754C3D" stroke="#3D2D2B" stroke-width="0.5" stroke-miterlimit="10" d="M164.345,87.638
		c0,0.09-0.054,0.161-0.119,0.161h-1.678c-0.065,0-0.119-0.071-0.119-0.161l0,0c0-0.089,0.054-0.161,0.119-0.161h1.678
		C164.291,87.478,164.345,87.55,164.345,87.638L164.345,87.638z"/>
	<path fill="#754C3D" stroke="#3D2D2B" stroke-width="0.5" stroke-miterlimit="10" d="M164.345,88.083
		c0,0.042-0.054,0.077-0.119,0.077h-1.678c-0.065,0-0.119-0.035-0.119-0.077l0,0c0-0.042,0.054-0.077,0.119-0.077h1.678
		C164.291,88.006,164.345,88.04,164.345,88.083L164.345,88.083z"/>
	<path fill="#754C3D" d="M164.44,87.236c0,0.071-0.061,0.127-0.138,0.127h-1.769c-0.077,0-0.14-0.057-0.14-0.127l0,0
		c0-0.071,0.062-0.128,0.14-0.128h1.769C164.38,87.108,164.44,87.165,164.44,87.236L164.44,87.236z"/>
	<path fill="#754C3D" d="M164.202,87.732c0,0.092-0.064,0.167-0.143,0.167h-1.338c-0.079,0-0.144-0.075-0.144-0.167l0,0
		c0-0.092,0.064-0.167,0.144-0.167h1.338C164.137,87.566,164.202,87.64,164.202,87.732L164.202,87.732z"/>
	<path fill="#754C3D" d="M164.089,88.136c0,0.072-0.035,0.13-0.078,0.13h-1.248c-0.043,0-0.078-0.058-0.078-0.13l0,0
		c0-0.072,0.035-0.13,0.078-0.13h1.248C164.054,88.006,164.089,88.063,164.089,88.136L164.089,88.136z"/>
	<path fill="#563429" d="M163.738,87.111c0,0,0.299,0.064,0.229,0.263c0,0,0.274-0.019,0.323,0.047c0,0,0.158-0.07,0.15-0.155
		c-0.005-0.054-0.018-0.144-0.185-0.154C164.147,87.104,164,87.111,163.738,87.111z"/>
	<path fill="#563429" d="M163.139,87.571c0,0-0.229,0.034-0.172,0.328c0,0-0.045,0-0.193,0c0,0-0.191-0.044-0.195-0.15
		c-0.003-0.067,0.007-0.165,0.144-0.178C162.808,87.561,162.927,87.571,163.139,87.571z"/>
	<path fill="#563429" d="M163.03,88.029c0,0-0.142,0.027-0.106,0.237c0,0-0.027,0-0.119,0c0,0-0.118-0.033-0.12-0.108
		c-0.002-0.048,0.004-0.119,0.088-0.129C162.825,88.023,162.898,88.029,163.03,88.029z"/>
	<polygon fill="#563429" points="162.657,118.764 162.895,103.375 162.896,118.893 	"/>
	<polygon fill="#563429" points="163.382,118.89 163.5,111.502 163.5,118.893 	"/>
	<path fill="#563429" d="M163.5,111.558"/>
	<polygon fill="#563429" points="163.382,118.89 163.5,106.946 163.5,118.893 	"/>
	<path fill="#232323" d="M144.329,92.504c0,0,3.074,1.274,5.036,0.759c0,0,0.097,0.351,0.079,0.604c0,0-1.706,0.521-5.162-0.841
		L144.329,92.504z"/>
	<path fill="#232323" d="M144.244,93.687c0,0,3.211,1.323,5.354,0.838c0,0,0.104,0.354,0.09,0.607c0,0-1.623,0.501-5.455-0.917
		L144.244,93.687z"/>
	<path fill="#232323" d="M161.328,92.504c0,0-3.073,1.274-5.036,0.759c0,0-0.096,0.351-0.079,0.604c0,0,1.706,0.521,5.163-0.841
		L161.328,92.504z"/>
	<path fill="#232323" d="M161.413,93.687c0,0-3.21,1.323-5.354,0.838c0,0-0.105,0.354-0.09,0.607c0,0,1.622,0.501,5.455-0.917
		L161.413,93.687z"/>
</g>
<g id="Laag_12">
	<ellipse opacity="0.1" enable-background="new    " cx="77.092" cy="164.169" rx="48.283" ry="2.562"/>
	<g>
		
			<image overflow="visible" opacity="0.5" enable-background="new    " width="118" height="78" xlink:href="A2B533D88ACC58E.png"  transform="matrix(0.9474 0 0 0.9474 20.4395 103.0225)">
		</image>
		<g>
			<path fill="#1ABC9C" d="M35.132,159.924c0.538-2.746,0.916-5.54,1.64-8.229c3.17-11.774,9.645-20.938,19.707-27.236
				c1.009-0.631,9.337-5.048,10.223-4.297c4.784,4.055,16.396,4.506,21.975-0.174c0.997-0.836,6.986,3.823,8.106,4.545
				c11.848,7.637,18.618,18.767,20.794,33.105c0.065,0.43,0.216,0.844,0.325,1.268c0,1.699,0,3.399,0,5.098
				c-27.59,0-55.181,0-82.771,0C35.132,162.643,35.132,161.284,35.132,159.924z"/>
		</g>
	</g>
	<g>
		
			<image overflow="visible" opacity="0.5" enable-background="new    " width="80" height="82" xlink:href="A2B533D88ACC58F.png"  transform="matrix(0.9474 0 0 0.9474 38.4404 63.231)">
		</image>
		<g>
			<path fill="#1ABC9C" d="M99.528,101.73c0.008,13.434-10.193,24.192-22.944,24.198c-12.709,0.009-23.011-10.807-23.022-24.167
				C53.552,88.364,63.794,77.599,76.548,77.6C89.347,77.602,99.52,88.283,99.528,101.73z"/>
		</g>
	</g>
	<path fill="#42362E" d="M96.268,124.525c0,0-18.79,12.544-52.955,12.544c0,0-8.181,11.144-8.181,26.935l79.375,0.318
		C114.508,164.322,105.546,133.804,96.268,124.525z"/>
	<circle fill="#352C26" cx="96.268" cy="125.824" r="3.685"/>
	<path fill="#352C26" d="M95.544,127.265c0,0-26.998,16.07-47.872,21.781"/>
	<path fill="#352C26" d="M95.544,127.265c0,0-18.862,19.066-35.058,26.141"/>
	<path fill="#352C26" d="M96.883,127.162c0,0-1.737,7.909-9.541,18.453"/>
	<path fill="#352C26" d="M97.696,127.982c0,0,1.127,6.301,0,18.452"/>
	<path fill="#352C26" d="M96.883,128.843c0,0,0.129,2.899-1.032,5.29"/>
	<path opacity="0.1" fill="#FFFFFF" enable-background="new    " d="M96.268,122.139c-0.393,0-0.771,0.062-1.127,0.178
		c1.483,0.476,2.557,1.865,2.557,3.508c0,1.642-1.074,3.031-2.557,3.509c0.355,0.113,0.734,0.176,1.127,0.176
		c2.036,0,3.686-1.65,3.686-3.685C99.955,123.789,98.304,122.139,96.268,122.139z"/>
	<path fill="#663B18" d="M74.707,148.285l9.566-9.365c0,0,0.623-0.235,1.047,0.188c0.423,0.424,1.47,1.564,1.47,1.564
		s0.361,0.457,0,0.819c-0.361,0.36-5.655,6.769-5.655,6.769l-0.748,0.237h-5.979L74.707,148.285z"/>
	<g opacity="0.05" enable-background="new    ">
		<g>
			<defs>
				<path id="SVGID_7_" d="M74.707,148.285l9.566-9.365c0,0,0.623-0.235,1.047,0.188c0.423,0.424,1.47,1.564,1.47,1.564
					s0.361,0.457,0,0.819c-0.361,0.36-5.655,6.769-5.655,6.769l-0.748,0.237h-5.979L74.707,148.285z"/>
			</defs>
			<clipPath id="SVGID_8_">
				<use xlink:href="#SVGID_7_"  overflow="visible"/>
			</clipPath>
			<g clip-path="url(#SVGID_8_)">
				
					<image overflow="visible" enable-background="new    " width="512" height="351" xlink:href="A2B533D88ACC58F.jpg"  transform="matrix(0.0632 0 0 0.0612 61.876 135.1895)">
				</image>
			</g>
		</g>
	</g>
	<path fill="#77543C" d="M83.087,160.864l-7.579,0.275l-7.588-0.275c0,0-0.634,3.007,0,3.642c0.603,0.604,3.899,1.036,7.588,1.036
		c3.689,0,6.64-0.093,7.585-1.036C83.714,163.882,83.087,160.864,83.087,160.864z"/>
	<g opacity="0.05" enable-background="new    ">
		<g>
			<defs>
				<path id="SVGID_9_" d="M83.023,160.8l-7.58,0.277l-7.587-0.277c0,0-0.635,3.007,0,3.642c0.602,0.603,3.898,1.036,7.587,1.036
					c3.689,0,6.639-0.091,7.584-1.036C83.65,163.817,83.023,160.8,83.023,160.8z"/>
			</defs>
			<clipPath id="SVGID_10_">
				<use xlink:href="#SVGID_9_"  overflow="visible"/>
			</clipPath>
			<g clip-path="url(#SVGID_10_)">
				
					<image overflow="visible" enable-background="new    " width="512" height="351" xlink:href="A2B533D88ACC581.jpg"  transform="matrix(0.0632 0 0 0.0612 59.7827 144.5732)">
				</image>
			</g>
		</g>
	</g>
	<path fill="#5B3F2C" d="M67.826,161.377c0,0,7.682,4.004,15.262-0.509c0,0-15.039,0.081-15.168,0L67.826,161.377z"/>
	<polygon points="74.997,148.446 81.492,148.078 81.724,147.551 75.393,147.551 	"/>
	<path fill="#77543C" d="M89.138,149.129l-13.631-0.738l-13.63,0.738c0,0-0.413,13.565,13.63,13.565
		C89.551,162.694,89.138,149.129,89.138,149.129z"/>
	<path fill="#77543C" d="M89.14,147.843c-10.204,0-19.24,0.031-27.264,0.031c-0.308,0-0.583,1.941,0,2.783c0,0,1.854,0,13.631,0
		c11.778,0,13.599,0,13.599,0C89.631,149.815,89.452,147.843,89.14,147.843z"/>
	<g opacity="0.05" enable-background="new    ">
		<g>
			<defs>
				<path id="SVGID_11_" d="M89.138,149.129l-13.631-0.738l-13.63,0.738c0,0-0.413,13.565,13.63,13.565
					C89.551,162.694,89.138,149.129,89.138,149.129z"/>
			</defs>
			<clipPath id="SVGID_12_">
				<use xlink:href="#SVGID_11_"  overflow="visible"/>
			</clipPath>
			<g clip-path="url(#SVGID_12_)">
				
					<image overflow="visible" enable-background="new    " width="527" height="351" xlink:href="A2B533D88ACC583.jpg"  transform="matrix(0.0614 0 0 0.0612 59.2593 145.0908)">
				</image>
			</g>
		</g>
	</g>
	<path fill="#5B3F2C" d="M62.038,151.284c0,0,19.49-0.627,27.069-0.627l-0.023-0.265h-27.1
		C61.982,150.393,62.001,151.193,62.038,151.284z"/>
	<rect x="74.995" y="152.306" fill="#C12521" width="2.097" height="7.126"/>
	<rect x="72.481" y="154.82" fill="#C12521" width="7.125" height="2.097"/>
</g>
</svg>
