<?xml version="1.0" encoding="utf-8"?>
<!-- Generator: Adobe Illustrator 17.0.0, SVG Export Plug-In . SVG Version: 6.00 Build 0)  -->
<!DOCTYPE svg PUBLIC "-//W3C//DTD SVG 1.1//EN" "http://www.w3.org/Graphics/SVG/1.1/DTD/svg11.dtd">
<svg version="1.1" id="Laag_1" xmlns="http://www.w3.org/2000/svg" xmlns:xlink="http://www.w3.org/1999/xlink" x="0px" y="0px"
	 width="128px" height="128px" viewBox="0 0 128 128" style="enable-background:new 0 0 128 128;" xml:space="preserve">
<g>
	<g id="Layer_1">
	</g>
	<g id="Layer_3">
	</g>
	<circle style="fill:#0BD18F;" cx="63.8" cy="64" r="63.6"/>
	<path style="fill:#06AD79;" d="M127.7,64c0-35.1-29-63.6-64.7-63.6c0,85.4,0,103.8,0,127.2C98.7,127.6,127.7,99.1,127.7,64z"/>
	<path style="fill:none;stroke:#FFFFFF;stroke-width:2.1758;stroke-miterlimit:10;" d="M65.4,129.5c3.2-12.4,8.5-21.9,18.6-30.2"/>
	<path style="fill:none;stroke:#FFFFFF;stroke-width:2.2901;stroke-miterlimit:10;" d="M95.3,42.6C82.8,55.5,84.2,81,82.7,98"/>
	<path style="fill:none;stroke:#FFFFFF;stroke-width:2.2901;stroke-miterlimit:10;" d="M107.3,75c-2.8,9.7-16.1,18.2-25.2,24.3"/>
	<path style="fill:none;stroke:#FFFFFF;stroke-width:2.2901;stroke-miterlimit:10;" d="M82.1,98c4.6-8.3,11.6-18.9,11.9-28.4"/>
	<path style="fill:none;stroke:#FFFFFF;stroke-width:2.2901;stroke-miterlimit:10;" d="M30.3,84.5c11.9,0.3,20.5,3.5,25.4,14.8
		c3.7,8.6,7.4,18.7,7.1,28.4"/>
	<path style="fill:none;stroke:#FFFFFF;stroke-width:2.2901;stroke-miterlimit:10;" d="M28.3,63.5c8.7,5.7,25.8,18.4,26.5,30.4"/>
	<path style="fill:none;stroke:#FFFFFF;stroke-width:2.2901;stroke-miterlimit:10;" d="M54.9,56.8c0,13.8-1.2,29.5,2.7,42.6"/>
	<path style="fill:none;stroke:#FFFFFF;stroke-width:2.4538;stroke-miterlimit:10;" d="M65.5,127.5c0-13.3-4.4-36.9,1.4-47.8"/>
	<path style="fill:none;stroke:#FFFFFF;stroke-width:2.2901;stroke-miterlimit:10;" d="M36.3,53.4c9.5,8.9,16,19,14.6,31.8"/>
	<path style="fill:none;stroke:#FFFFFF;stroke-width:2.2901;stroke-miterlimit:10;" d="M37,25c5.7,12.6,8.8,25.1,8.6,38.5"/>
	<path style="fill:none;stroke:#FFFFFF;stroke-width:2.2901;stroke-miterlimit:10;" d="M52.2,21c-3.6,10.4-5.3,18.8-5.3,29.7"/>
	<path style="fill:none;stroke:#FFFFFF;stroke-width:2.2901;stroke-miterlimit:10;" d="M68.8,20.3c-6.7,7.1-14.1,14.2-18.6,23.1
		c-3.2,6.4-1.5,14.6-4,20.1"/>
	<path style="fill:none;stroke:#FFFFFF;stroke-width:2.2901;stroke-miterlimit:10;" d="M68.1,45.3c-6,15.7-7.9,27.3-6.6,43.9"/>
	<path style="fill:none;stroke:#FFFFFF;stroke-width:2.2901;stroke-miterlimit:10;" d="M61.5,39.2c0.5,4.4,0.5,8.7,1.3,12.8"/>
	<path style="fill:none;stroke:#FFFFFF;stroke-width:2.2901;stroke-miterlimit:10;" d="M78.7,60.8c2.6,8.5,4,21.5,3.3,30.4"/>
	<ellipse style="fill:#FFFFFF;" cx="25" cy="84.5" rx="6" ry="6.1"/>
	<ellipse style="fill:#FFFFFF;" cx="21.7" cy="60.8" rx="6" ry="6.1"/>
	<ellipse style="fill:#FFFFFF;" cx="31" cy="48" rx="6" ry="6.1"/>
	<ellipse style="fill:#FFFFFF;" cx="36.3" cy="21" rx="5.3" ry="5.4"/>
	<ellipse style="fill:#FFFFFF;" cx="52.2" cy="15.6" rx="5.3" ry="5.4"/>
	<ellipse style="fill:#FFFFFF;" cx="71.8" cy="15.6" rx="6" ry="6.2"/>
	<ellipse style="fill:#FFFFFF;" cx="54.9" cy="50.7" rx="5" ry="5.1"/>
	<ellipse style="fill:#FFFFFF;stroke:#FFFFFF;stroke-width:2.2901;stroke-miterlimit:10;" cx="64.1" cy="34.5" rx="6" ry="6.2"/>
	<ellipse style="fill:#FFFFFF;" cx="70.1" cy="75" rx="6" ry="6.1"/>
	<ellipse style="fill:#FFFFFF;" cx="78.7" cy="54.8" rx="6" ry="6.1"/>
	<ellipse style="fill:#FFFFFF;" cx="72.8" cy="42.6" rx="6" ry="6.1"/>
	<ellipse style="fill:#FFFFFF;" cx="100" cy="39.2" rx="6" ry="6.1"/>
	<ellipse style="fill:#FFFFFF;" cx="95.3" cy="63.5" rx="6" ry="6.1"/>
	<ellipse style="fill:#FFFFFF;" cx="110.6" cy="70.3" rx="6" ry="6.1"/>
	<path style="fill:none;stroke:#FFFFFF;stroke-width:2.2901;stroke-miterlimit:10;" d="M33.3,50.4c-0.6-0.6,3.1,3.2,3.6,3.9
		c0.3,0.2,0.8,1,0.7,0.9"/>
	<path style="fill:none;stroke:#FFFFFF;stroke-width:2.2901;stroke-miterlimit:10;" d="M29.3,64.6c-1.5-0.9-5.7-2.9-6.6-4.1"/>
	<path style="fill:none;stroke:#FFFFFF;stroke-width:2.2901;stroke-miterlimit:10;" d="M56.5,97c0.9,2.9,1.6,5.3,2,8.1"/>
	<path style="fill:none;stroke:#FFFFFF;stroke-width:2.2901;stroke-miterlimit:10;" d="M60.8,86.5c1.1,3.5,1.7,6.4,3.6,9.1"/>
	<path style="fill:none;stroke:#FFFFFF;stroke-width:2.2901;stroke-miterlimit:10;" d="M81.7,102.1c0.3-4.9-0.3-8.1-0.3-12.5"/>
	<path style="fill:none;stroke:#FFFFFF;stroke-width:2.2901;stroke-miterlimit:10;" d="M81.1,102.1c2.3-1.8,4.6-3.4,6-5.7"/>
	<path style="fill:none;stroke:#FFFFFF;stroke-width:2.2901;stroke-miterlimit:10;" d="M76.8,58.5c0.8,1.8,1.3,3.4,2.3,4.7"/>
	<path style="fill:none;stroke:#FFFFFF;stroke-width:2.2901;stroke-miterlimit:10;" d="M94.3,66.9c-0.3,1.6-0.5,3.1-0.7,4.7"/>
	<path style="fill:none;stroke:#FFFFFF;stroke-width:2.2901;stroke-miterlimit:10;" d="M64.2,57.1c-0.9-2.6-2.1-5.3-2-8.1"/>
	<path style="fill:none;stroke:#FFFFFF;stroke-width:2.2901;stroke-miterlimit:10;" d="M54.5,52.7c0,2.2,0,3.8,0.3,5.7"/>
	<path style="fill:none;stroke:#FFFFFF;stroke-width:2.2901;stroke-miterlimit:10;" d="M46.6,58.5c0-2.7,0.4-6.4-0.3-9.1"/>
	<path style="fill:none;stroke:#FFFFFF;stroke-width:2.2901;stroke-miterlimit:10;" d="M52.5,18.6c-0.1,1.5-0.4,3.2-0.7,4.7"/>
	<g id="Layer_4" style="display:none;">
	</g>
</g>
</svg>
